<svg width="345" height="600" xmlns="http://www.w3.org/2000/svg" xmlns:xlink="http://www.w3.org/1999/xlink" version="1.1" baseProfile="full" viewBox="0 0 345 600">
<rect width="345" height="600" x="0" y="0" id="0" fill="#11131f"></rect>
<path d="M65 540.5L335 540.5" fill="none" stroke="#ffffff66" stroke-opacity="0.25" stroke-dasharray="1"></path>
<path d="M65 453.5L335 453.5" fill="none" stroke="#ffffff66" stroke-opacity="0.25" stroke-dasharray="1"></path>
<path d="M65 366.5L335 366.5" fill="none" stroke="#ffffff66" stroke-opacity="0.25" stroke-dasharray="1"></path>
<path d="M65 280.5L335 280.5" fill="none" stroke="#ffffff66" stroke-opacity="0.25" stroke-dasharray="1"></path>
<path d="M65 193.5L335 193.5" fill="none" stroke="#ffffff66" stroke-opacity="0.25" stroke-dasharray="1"></path>
<path d="M65 106.5L335 106.5" fill="none" stroke="#ffffff66" stroke-opacity="0.25" stroke-dasharray="1"></path>
<path d="M65 20.5L335 20.5" fill="none" stroke="#ffffff66" stroke-opacity="0.25" stroke-dasharray="1"></path>
<path d="M65 540.5L335 540.5" fill="none" stroke="#6E7079" stroke-linecap="round"></path>
<text dominant-baseline="central" text-anchor="middle" style="font-size:12px;font-family:sans-serif;" xml:space="preserve" y="26" transform="translate(200 555)" fill="#6E7079">Jul 29, 2023</text>
<path d="M72.5 540L72.5 545" fill="none" stroke="#6E7079"></path>
<path d="M106.5 540L106.5 545" fill="none" stroke="#6E7079"></path>
<path d="M140.5 540L140.5 545" fill="none" stroke="#6E7079"></path>
<path d="M174.5 540L174.5 545" fill="none" stroke="#6E7079"></path>
<path d="M208.5 540L208.5 545" fill="none" stroke="#6E7079"></path>
<path d="M242.5 540L242.5 545" fill="none" stroke="#6E7079"></path>
<path d="M276.5 540L276.5 545" fill="none" stroke="#6E7079"></path>
<path d="M310.5 540L310.5 545" fill="none" stroke="#6E7079"></path>
<text dominant-baseline="central" text-anchor="end" style="font-size:11px;font-family:sans-serif;" xml:space="preserve" transform="translate(57 540)" fill="#6E7079">0 MvB</text>
<text dominant-baseline="central" text-anchor="end" style="font-size:11px;font-family:sans-serif;" xml:space="preserve" transform="translate(57 453.3333)" fill="#6E7079">20 MvB</text>
<text dominant-baseline="central" text-anchor="end" style="font-size:11px;font-family:sans-serif;" xml:space="preserve" transform="translate(57 366.6667)" fill="#6E7079">40 MvB</text>
<text dominant-baseline="central" text-anchor="end" style="font-size:11px;font-family:sans-serif;" xml:space="preserve" transform="translate(57 280)" fill="#6E7079">60 MvB</text>
<text dominant-baseline="central" text-anchor="end" style="font-size:11px;font-family:sans-serif;" xml:space="preserve" transform="translate(57 193.3333)" fill="#6E7079">80 MvB</text>
<text dominant-baseline="central" text-anchor="end" style="font-size:11px;font-family:sans-serif;" xml:space="preserve" transform="translate(57 106.6667)" fill="#6E7079">100 MvB</text>
<text dominant-baseline="central" text-anchor="end" style="font-size:11px;font-family:sans-serif;" xml:space="preserve" transform="translate(57 20)" fill="#6E7079">120 MvB</text>
<path d="M-18.7634 0l37.5269 0l0 12l-37.5269 0Z" transform="translate(71.9841 560)" fill="none"></path>
<text dominant-baseline="central" text-anchor="middle" style="font: normal normal 11px sans-serif" y="6" transform="translate(71.9841 560)" fill="#6E7079">21:30</text>
<path d="M-18.7634 0l37.5269 0l0 12l-37.5269 0Z" transform="translate(207.8901 560)" fill="none"></path>
<text dominant-baseline="central" text-anchor="middle" style="font: normal normal 11px sans-serif" y="6" transform="translate(207.8901 560)" fill="#6E7079">22:30</text>
<path d="M-20.3457 0l40.6914 0l0 12l-40.6914 0Z" transform="translate(139.9371 560)" fill="none"></path>
<text dominant-baseline="central" text-anchor="middle" style="font-size:12px;font-family:sans-serif;font-weight:bold;" y="6" transform="translate(139.9371 560)" fill="#6E7079">22:00</text>
<path d="M-20.3457 0l40.6914 0l0 12l-40.6914 0Z" transform="translate(275.8431 560)" fill="none"></path>
<text dominant-baseline="central" text-anchor="middle" style="font-size:12px;font-family:sans-serif;font-weight:bold;" y="6" transform="translate(275.8431 560)" fill="#6E7079">23:00</text>
<g clip-path="url(#zr13-c0)">
<path d="M65 464.935L67.3028 464.935L69.568 464.935L71.8331 464.935L74.0982 464.935L76.401 464.935L78.6661 464.935L80.9312 464.935L83.1963 464.935L85.4614 464.935L87.7265 464.935L89.9916 464.9345L92.2567 464.935L94.5218 464.935L96.7869 464.935L99.052 464.935L101.3171 464.935L103.5822 464.935L105.8473 464.9345L108.1124 464.9345L110.3775 464.935L112.6426 464.935L114.9077 464.9345L117.1728 464.9345L119.4379 464.9345L121.703 464.9362L123.9681 464.9362L126.2332 464.9362L128.4983 464.9362L130.7634 464.9362L133.0663 464.9362L135.2936 464.9362L137.5587 464.9362L139.8238 464.9362L142.1267 464.9362L144.3918 464.9362L146.6569 464.9362L148.922 464.9362L151.1871 464.9362L153.4522 464.9362L155.7173 464.9362L157.9824 464.9362L160.2475 464.9362L162.5126 464.9362L164.7777 464.9362L167.0805 464.9367L169.3456 464.9352L171.573 464.9352L173.8758 464.9352L176.1409 464.9352L178.406 464.9352L180.6711 464.9352L182.9362 464.9352L185.2013 464.9352L187.4664 464.9352L189.7315 464.9352L191.9966 464.9352L194.2617 464.9352L196.5268 464.9352L198.7919 464.9352L201.0571 464.9344L203.3221 464.9344L205.5872 464.9344L207.8524 464.9344L210.1174 464.9344L212.4203 464.9344L214.6476 464.9336L216.9128 464.9336L219.1779 464.9336L221.4429 464.9348L223.7081 464.9348L225.9732 464.9348L228.2383 464.9348L230.5411 464.9348L232.8062 464.9348L235.0713 464.9348L237.3364 464.9348L239.6015 464.9348L241.8666 464.9342L244.1317 464.9342L246.4346 464.9342L248.6997 464.9342L250.9648 464.9342L253.2676 464.9342L255.495 464.9342L257.7601 464.9342L260.0252 464.9342L262.2903 464.9342L264.5554 464.9342L266.8582 464.9342L269.1233 464.9342L271.3884 464.9342L273.6913 464.9342L275.9186 464.9342L278.2215 464.9342L280.4866 464.9347L282.7517 464.9347L285.0168 464.9347L287.2819 464.9347L289.547 464.9347L291.8498 464.9347L294.1149 464.9347L296.38 464.9347L298.6451 464.9347L300.9102 464.9347L303.2131 464.9347L305.4782 464.9347L307.7433 464.9347L310.0084 464.9347L312.2735 464.9347L314.5386 464.9347L316.8414 464.9355L319.1065 464.9355L321.3339 464.9349L323.6367 464.9344L325.9019 464.9344L328.1669 464.9344L330.432 464.9344L332.7349 464.9344L335 464.9344L335 540L332.7349 540L330.432 540L328.1669 540L325.9019 540L323.6367 540L321.3339 540L319.1065 540L316.8414 540L314.5386 540L312.2735 540L310.0084 540L307.7433 540L305.4782 540L303.2131 540L300.9102 540L298.6451 540L296.38 540L294.1149 540L291.8498 540L289.547 540L287.2819 540L285.0168 540L282.7517 540L280.4866 540L278.2215 540L275.9186 540L273.6913 540L271.3884 540L269.1233 540L266.8582 540L264.5554 540L262.2903 540L260.0252 540L257.7601 540L255.495 540L253.2676 540L250.9648 540L248.6997 540L246.4346 540L244.1317 540L241.8666 540L239.6015 540L237.3364 540L235.0713 540L232.8062 540L230.5411 540L228.2383 540L225.9732 540L223.7081 540L221.4429 540L219.1779 540L216.9128 540L214.6476 540L212.4203 540L210.1174 540L207.8524 540L205.5872 540L203.3221 540L201.0571 540L198.7919 540L196.5268 540L194.2617 540L191.9966 540L189.7315 540L187.4664 540L185.2013 540L182.9362 540L180.6711 540L178.406 540L176.1409 540L173.8758 540L171.573 540L169.3456 540L167.0805 540L164.7777 540L162.5126 540L160.2475 540L157.9824 540L155.7173 540L153.4522 540L151.1871 540L148.922 540L146.6569 540L144.3918 540L142.1267 540L139.8238 540L137.5587 540L135.2936 540L133.0663 540L130.7634 540L128.4983 540L126.2332 540L123.9681 540L121.703 540L119.4379 540L117.1728 540L114.9077 540L112.6426 540L110.3775 540L108.1124 540L105.8473 540L103.5822 540L101.3171 540L99.052 540L96.7869 540L94.5218 540L92.2567 540L89.9916 540L87.7265 540L85.4614 540L83.1963 540L80.9312 540L78.6661 540L76.401 540L74.0982 540L71.8331 540L69.568 540L67.3028 540L65 540Z" fill="#D81B60"></path>
</g>
<g clip-path="url(#zr13-c1)">
<path d="M65 353.3515L67.3028 353.3515L69.568 353.3515L71.8331 353.3515L74.0982 353.3515L76.401 353.3515L78.6661 353.3515L80.9312 353.3496L83.1963 353.3496L85.4614 353.3496L87.7265 353.3496L89.9916 353.3491L92.2567 353.3502L94.5218 353.3502L96.7869 353.3507L99.052 353.3507L101.3171 353.3507L103.5822 353.3507L105.8473 353.3502L108.1124 353.3502L110.3775 353.3507L112.6426 353.3507L114.9077 353.3502L117.1728 353.3502L119.4379 353.3502L121.703 353.3519L123.9681 353.3519L126.2332 353.3519L128.4983 353.3519L130.7634 353.3513L133.0663 353.3513L135.2936 353.3513L137.5587 353.3513L139.8238 353.3506L142.1267 353.3506L144.3918 353.35L146.6569 353.35L148.922 353.35L151.1871 353.35L153.4522 353.35L155.7173 353.35L157.9824 353.349L160.2475 353.349L162.5126 353.349L164.7777 353.349L167.0805 353.3495L169.3456 353.348L171.573 353.348L173.8758 353.348L176.1409 353.348L178.406 353.348L180.6711 353.348L182.9362 353.348L185.2013 353.348L187.4664 353.348L189.7315 353.348L191.9966 353.348L194.2617 353.348L196.5268 353.348L198.7919 353.348L201.0571 353.3471L203.3221 353.3471L205.5872 353.3471L207.8524 353.3471L210.1174 353.3471L212.4203 353.3471L214.6476 353.3463L216.9128 353.3463L219.1779 353.3463L221.4429 353.3457L223.7081 353.3457L225.9732 353.3463L228.2383 353.3463L230.5411 353.3463L232.8062 353.3463L235.0713 353.3463L237.3364 353.3463L239.6015 353.3463L241.8666 353.3457L244.1317 353.3457L246.4346 353.3457L248.6997 353.3457L250.9648 353.3457L253.2676 353.3457L255.495 353.3457L257.7601 353.3457L260.0252 353.3457L262.2903 353.3457L264.5554 353.3457L266.8582 353.3457L269.1233 353.3457L271.3884 353.3457L273.6913 353.3457L275.9186 353.3457L278.2215 353.3457L280.4866 353.3466L282.7517 353.3466L285.0168 353.3466L287.2819 353.3466L289.547 353.3466L291.8498 353.3466L294.1149 353.3466L296.38 353.3466L298.6451 353.3466L300.9102 353.3466L303.2131 353.3466L305.4782 353.3466L307.7433 353.3466L310.0084 353.3466L312.2735 353.3466L314.5386 353.3466L316.8414 353.3468L319.1065 353.3468L321.3339 353.3462L323.6367 353.3456L325.9019 353.3456L328.1669 353.3456L330.432 353.3456L332.7349 353.3456L335 353.3456L335 464.9344L332.7349 464.9344L330.432 464.9344L328.1669 464.9344L325.9019 464.9344L323.6367 464.9344L321.3339 464.9349L319.1065 464.9355L316.8414 464.9355L314.5386 464.9347L312.2735 464.9347L310.0084 464.9347L307.7433 464.9347L305.4782 464.9347L303.2131 464.9347L300.9102 464.9347L298.6451 464.9347L296.38 464.9347L294.1149 464.9347L291.8498 464.9347L289.547 464.9347L287.2819 464.9347L285.0168 464.9347L282.7517 464.9347L280.4866 464.9347L278.2215 464.9342L275.9186 464.9342L273.6913 464.9342L271.3884 464.9342L269.1233 464.9342L266.8582 464.9342L264.5554 464.9342L262.2903 464.9342L260.0252 464.9342L257.7601 464.9342L255.495 464.9342L253.2676 464.9342L250.9648 464.9342L248.6997 464.9342L246.4346 464.9342L244.1317 464.9342L241.8666 464.9342L239.6015 464.9348L237.3364 464.9348L235.0713 464.9348L232.8062 464.9348L230.5411 464.9348L228.2383 464.9348L225.9732 464.9348L223.7081 464.9348L221.4429 464.9348L219.1779 464.9336L216.9128 464.9336L214.6476 464.9336L212.4203 464.9344L210.1174 464.9344L207.8524 464.9344L205.5872 464.9344L203.3221 464.9344L201.0571 464.9344L198.7919 464.9352L196.5268 464.9352L194.2617 464.9352L191.9966 464.9352L189.7315 464.9352L187.4664 464.9352L185.2013 464.9352L182.9362 464.9352L180.6711 464.9352L178.406 464.9352L176.1409 464.9352L173.8758 464.9352L171.573 464.9352L169.3456 464.9352L167.0805 464.9367L164.7777 464.9362L162.5126 464.9362L160.2475 464.9362L157.9824 464.9362L155.7173 464.9362L153.4522 464.9362L151.1871 464.9362L148.922 464.9362L146.6569 464.9362L144.3918 464.9362L142.1267 464.9362L139.8238 464.9362L137.5587 464.9362L135.2936 464.9362L133.0663 464.9362L130.7634 464.9362L128.4983 464.9362L126.2332 464.9362L123.9681 464.9362L121.703 464.9362L119.4379 464.9345L117.1728 464.9345L114.9077 464.9345L112.6426 464.935L110.3775 464.935L108.1124 464.9345L105.8473 464.9345L103.5822 464.935L101.3171 464.935L99.052 464.935L96.7869 464.935L94.5218 464.935L92.2567 464.935L89.9916 464.9345L87.7265 464.935L85.4614 464.935L83.1963 464.935L80.9312 464.935L78.6661 464.935L76.401 464.935L74.0982 464.935L71.8331 464.935L69.568 464.935L67.3028 464.935L65 464.935Z" fill="#8E24AA"></path>
</g>
<g clip-path="url(#zr13-c2)">
<path d="M65 222.0815L67.3028 222.0815L69.568 222.0815L71.8331 222.0815L74.0982 222.0815L76.401 222.0815L78.6661 222.081L80.9312 222.079L83.1963 222.079L85.4614 222.079L87.7265 222.079L89.9916 222.0786L92.2567 222.0797L94.5218 222.0797L96.7869 222.0801L99.052 222.0796L101.3171 222.0791L103.5822 222.0791L105.8473 222.0786L108.1124 222.0786L110.3775 222.0791L112.6426 222.0791L114.9077 222.0786L117.1728 222.0791L119.4379 222.0791L121.703 222.0785L123.9681 222.0785L126.2332 222.0785L128.4983 222.0785L130.7634 222.0779L133.0663 222.0779L135.2936 222.0779L137.5587 222.0779L139.8238 222.0795L142.1267 222.0795L144.3918 222.0789L146.6569 221.8875L148.922 221.8875L151.1871 221.8875L153.4522 221.8875L155.7173 221.8875L157.9824 221.8866L160.2475 221.8866L162.5126 221.8866L164.7777 221.8866L167.0805 221.887L169.3456 221.8855L171.573 221.8855L173.8758 221.8855L176.1409 221.8861L178.406 221.8861L180.6711 221.8861L182.9362 221.8861L185.2013 221.8861L187.4664 221.8861L189.7315 221.8861L191.9966 221.8861L194.2617 221.8861L196.5268 221.8861L198.7919 221.8861L201.0571 221.8852L203.3221 221.8852L205.5872 221.8852L207.8524 221.8852L210.1174 221.8852L212.4203 221.8852L214.6476 221.8844L216.9128 221.8844L219.1779 221.885L221.4429 221.8844L223.7081 221.8844L225.9732 221.8849L228.2383 221.8849L230.5411 221.8849L232.8062 221.8849L235.0713 221.8849L237.3364 221.8849L239.6015 221.8849L241.8666 221.8843L244.1317 221.8843L246.4346 221.8843L248.6997 221.8843L250.9648 221.8854L253.2676 221.8854L255.495 221.8859L257.7601 221.8859L260.0252 221.8859L262.2903 221.8865L264.5554 221.8865L266.8582 221.8865L269.1233 221.8865L271.3884 221.8865L273.6913 221.8865L275.9186 221.8865L278.2215 221.8865L280.4866 221.8879L282.7517 221.8879L285.0168 221.8879L287.2819 221.8879L289.547 221.8879L291.8498 221.8879L294.1149 221.8879L296.38 221.8879L298.6451 221.8879L300.9102 221.8879L303.2131 221.8879L305.4782 221.8879L307.7433 221.8879L310.0084 221.8879L312.2735 221.8879L314.5386 221.8879L316.8414 221.888L319.1065 221.888L321.3339 221.8874L323.6367 221.8868L325.9019 221.8868L328.1669 221.8868L330.432 221.8868L332.7349 221.8868L335 221.8868L335 353.3456L332.7349 353.3456L330.432 353.3456L328.1669 353.3456L325.9019 353.3456L323.6367 353.3456L321.3339 353.3462L319.1065 353.3468L316.8414 353.3468L314.5386 353.3466L312.2735 353.3466L310.0084 353.3466L307.7433 353.3466L305.4782 353.3466L303.2131 353.3466L300.9102 353.3466L298.6451 353.3466L296.38 353.3466L294.1149 353.3466L291.8498 353.3466L289.547 353.3466L287.2819 353.3466L285.0168 353.3466L282.7517 353.3466L280.4866 353.3466L278.2215 353.3457L275.9186 353.3457L273.6913 353.3457L271.3884 353.3457L269.1233 353.3457L266.8582 353.3457L264.5554 353.3457L262.2903 353.3457L260.0252 353.3457L257.7601 353.3457L255.495 353.3457L253.2676 353.3457L250.9648 353.3457L248.6997 353.3457L246.4346 353.3457L244.1317 353.3457L241.8666 353.3457L239.6015 353.3463L237.3364 353.3463L235.0713 353.3463L232.8062 353.3463L230.5411 353.3463L228.2383 353.3463L225.9732 353.3463L223.7081 353.3457L221.4429 353.3457L219.1779 353.3463L216.9128 353.3463L214.6476 353.3463L212.4203 353.3471L210.1174 353.3471L207.8524 353.3471L205.5872 353.3471L203.3221 353.3471L201.0571 353.3471L198.7919 353.348L196.5268 353.348L194.2617 353.348L191.9966 353.348L189.7315 353.348L187.4664 353.348L185.2013 353.348L182.9362 353.348L180.6711 353.348L178.406 353.348L176.1409 353.348L173.8758 353.348L171.573 353.348L169.3456 353.348L167.0805 353.3495L164.7777 353.349L162.5126 353.349L160.2475 353.349L157.9824 353.349L155.7173 353.35L153.4522 353.35L151.1871 353.35L148.922 353.35L146.6569 353.35L144.3918 353.35L142.1267 353.3506L139.8238 353.3506L137.5587 353.3513L135.2936 353.3513L133.0663 353.3513L130.7634 353.3513L128.4983 353.3519L126.2332 353.3519L123.9681 353.3519L121.703 353.3519L119.4379 353.3502L117.1728 353.3502L114.9077 353.3502L112.6426 353.3507L110.3775 353.3507L108.1124 353.3502L105.8473 353.3502L103.5822 353.3507L101.3171 353.3507L99.052 353.3507L96.7869 353.3507L94.5218 353.3502L92.2567 353.3502L89.9916 353.3491L87.7265 353.3496L85.4614 353.3496L83.1963 353.3496L80.9312 353.3496L78.6661 353.3515L76.401 353.3515L74.0982 353.3515L71.8331 353.3515L69.568 353.3515L67.3028 353.3515L65 353.3515Z" fill="#5E35B1"></path>
</g>
<g clip-path="url(#zr13-c3)">
<path d="M65 151.992L67.3028 151.992L69.568 151.992L71.8331 151.9815L74.0982 151.9815L76.401 151.9815L78.6661 151.9809L80.9312 151.979L83.1963 151.979L85.4614 151.979L87.7265 151.979L89.9916 151.9785L92.2567 151.9796L94.5218 151.9796L96.7869 151.9785L99.052 151.9779L101.3171 151.9774L103.5822 151.9774L105.8473 151.9769L108.1124 151.9776L110.3775 151.9781L112.6426 151.9781L114.9077 151.9776L117.1728 151.9781L119.4379 151.9781L121.703 151.9775L123.9681 151.9763L126.2332 151.9756L128.4983 151.975L130.7634 151.9738L133.0663 151.9738L135.2936 151.9738L137.5587 151.9738L139.8238 151.9748L142.1267 151.9742L144.3918 151.9736L146.6569 151.7822L148.922 151.7822L151.1871 151.7828L153.4522 151.7828L155.7173 151.7835L157.9824 151.7825L160.2475 151.7825L162.5126 151.783L164.7777 151.783L167.0805 151.7835L169.3456 151.782L171.573 151.782L173.8758 151.782L176.1409 151.782L178.406 151.782L180.6711 151.7805L182.9362 151.7805L185.2013 151.7805L187.4664 151.7797L189.7315 151.7797L191.9966 151.7797L194.2617 151.7797L196.5268 151.7797L198.7919 151.778L201.0571 151.7777L203.3221 151.7777L205.5872 151.7777L207.8524 151.7777L210.1174 151.7777L212.4203 151.7777L214.6476 151.7769L216.9128 151.7761L219.1779 151.777L221.4429 151.7758L223.7081 151.7758L225.9732 151.7753L228.2383 151.7753L230.5411 151.7753L232.8062 151.7759L235.0713 151.7759L237.3364 151.7759L239.6015 151.7759L241.8666 151.7753L244.1317 151.7753L246.4346 151.7753L248.6997 151.7753L250.9648 151.7753L253.2676 151.7753L255.495 151.7753L257.7601 151.7753L260.0252 151.7753L262.2903 151.7764L264.5554 151.7764L266.8582 151.7764L269.1233 151.7764L271.3884 151.7764L273.6913 151.7764L275.9186 151.7764L278.2215 151.7764L280.4866 151.7778L282.7517 151.7778L285.0168 151.7778L287.2819 151.7778L289.547 151.7778L291.8498 151.7838L294.1149 151.7838L296.38 151.7838L298.6451 151.7838L300.9102 151.7838L303.2131 151.7838L305.4782 151.7838L307.7433 151.7843L310.0084 151.7822L312.2735 151.7809L314.5386 151.7809L316.8414 151.7805L319.1065 151.7792L321.3339 151.7799L323.6367 151.7793L325.9019 151.7787L328.1669 151.7793L330.432 151.7793L332.7349 151.7764L335 151.7764L335 221.8868L332.7349 221.8868L330.432 221.8868L328.1669 221.8868L325.9019 221.8868L323.6367 221.8868L321.3339 221.8874L319.1065 221.888L316.8414 221.888L314.5386 221.8879L312.2735 221.8879L310.0084 221.8879L307.7433 221.8879L305.4782 221.8879L303.2131 221.8879L300.9102 221.8879L298.6451 221.8879L296.38 221.8879L294.1149 221.8879L291.8498 221.8879L289.547 221.8879L287.2819 221.8879L285.0168 221.8879L282.7517 221.8879L280.4866 221.8879L278.2215 221.8865L275.9186 221.8865L273.6913 221.8865L271.3884 221.8865L269.1233 221.8865L266.8582 221.8865L264.5554 221.8865L262.2903 221.8865L260.0252 221.8859L257.7601 221.8859L255.495 221.8859L253.2676 221.8854L250.9648 221.8854L248.6997 221.8843L246.4346 221.8843L244.1317 221.8843L241.8666 221.8843L239.6015 221.8849L237.3364 221.8849L235.0713 221.8849L232.8062 221.8849L230.5411 221.8849L228.2383 221.8849L225.9732 221.8849L223.7081 221.8844L221.4429 221.8844L219.1779 221.885L216.9128 221.8844L214.6476 221.8844L212.4203 221.8852L210.1174 221.8852L207.8524 221.8852L205.5872 221.8852L203.3221 221.8852L201.0571 221.8852L198.7919 221.8861L196.5268 221.8861L194.2617 221.8861L191.9966 221.8861L189.7315 221.8861L187.4664 221.8861L185.2013 221.8861L182.9362 221.8861L180.6711 221.8861L178.406 221.8861L176.1409 221.8861L173.8758 221.8855L171.573 221.8855L169.3456 221.8855L167.0805 221.887L164.7777 221.8866L162.5126 221.8866L160.2475 221.8866L157.9824 221.8866L155.7173 221.8875L153.4522 221.8875L151.1871 221.8875L148.922 221.8875L146.6569 221.8875L144.3918 222.0789L142.1267 222.0795L139.8238 222.0795L137.5587 222.0779L135.2936 222.0779L133.0663 222.0779L130.7634 222.0779L128.4983 222.0785L126.2332 222.0785L123.9681 222.0785L121.703 222.0785L119.4379 222.0791L117.1728 222.0791L114.9077 222.0786L112.6426 222.0791L110.3775 222.0791L108.1124 222.0786L105.8473 222.0786L103.5822 222.0791L101.3171 222.0791L99.052 222.0796L96.7869 222.0801L94.5218 222.0797L92.2567 222.0797L89.9916 222.0786L87.7265 222.079L85.4614 222.079L83.1963 222.079L80.9312 222.079L78.6661 222.081L76.401 222.0815L74.0982 222.0815L71.8331 222.0815L69.568 222.0815L67.3028 222.0815L65 222.0815Z" fill="#3949AB"></path>
</g>
<g clip-path="url(#zr13-c4)">
<path d="M65 97.9004L67.3028 97.9004L69.568 97.9004L71.8331 97.8899L74.0982 97.8914L76.401 97.8907L78.6661 97.8895L80.9312 97.8866L83.1963 97.8866L85.4614 97.8866L87.7265 97.8866L89.9916 97.8841L92.2567 97.8858L94.5218 97.8845L96.7869 97.8829L99.052 97.8823L101.3171 97.8818L103.5822 97.8818L105.8473 97.8803L108.1124 97.8787L110.3775 97.8799L112.6426 97.8799L114.9077 97.8789L117.1728 97.8794L119.4379 97.8195L121.703 97.8189L123.9681 97.817L126.2332 97.8158L128.4983 97.8146L130.7634 97.814L133.0663 97.8124L135.2936 97.8117L137.5587 97.8117L139.8238 97.8127L142.1267 97.814L144.3918 97.8134L146.6569 97.622L148.922 97.622L151.1871 97.622L153.4522 97.622L155.7173 97.6217L157.9824 97.6208L160.2475 97.6208L162.5126 97.6213L164.7777 97.6208L167.0805 97.6218L169.3456 97.6203L171.573 97.6225L173.8758 97.6153L176.1409 97.6153L178.406 97.405L180.6711 97.4035L182.9362 97.1918L185.2013 97.1918L187.4664 96.9826L189.7315 96.9826L191.9966 96.8365L194.2617 96.8277L196.5268 96.7799L198.7919 96.7781L201.0571 96.7769L203.3221 96.7773L205.5872 96.7753L207.8524 96.7742L210.1174 96.7738L212.4203 96.7738L214.6476 96.773L216.9128 96.77L219.1779 96.7713L221.4429 96.7705L223.7081 96.771L225.9732 96.7705L228.2383 96.7705L230.5411 96.77L232.8062 96.7706L235.0713 96.7704L237.3364 96.7704L239.6015 96.7697L241.8666 96.7691L244.1317 96.7691L246.4346 96.7691L248.6997 96.7691L250.9648 96.7691L253.2676 96.7691L255.495 96.7691L257.7601 96.7691L260.0252 96.7691L262.2903 96.7702L264.5554 96.7702L266.8582 96.7702L269.1233 96.7697L271.3884 96.7697L273.6913 96.7691L275.9186 96.7706L278.2215 96.7717L280.4866 96.7727L282.7517 96.7711L285.0168 96.7711L287.2819 96.7711L289.547 96.7711L291.8498 96.7778L294.1149 96.7751L296.38 96.7762L298.6451 96.7762L300.9102 96.7757L303.2131 96.7757L305.4782 96.7773L307.7433 96.7773L310.0084 96.7752L312.2735 96.7733L314.5386 96.7733L316.8414 96.7707L319.1065 96.7694L321.3339 96.7707L323.6367 96.7696L325.9019 96.769L328.1669 96.7666L330.432 96.7682L332.7349 96.7682L335 96.7682L335 151.7764L332.7349 151.7764L330.432 151.7793L328.1669 151.7793L325.9019 151.7787L323.6367 151.7793L321.3339 151.7799L319.1065 151.7792L316.8414 151.7805L314.5386 151.7809L312.2735 151.7809L310.0084 151.7822L307.7433 151.7843L305.4782 151.7838L303.2131 151.7838L300.9102 151.7838L298.6451 151.7838L296.38 151.7838L294.1149 151.7838L291.8498 151.7838L289.547 151.7778L287.2819 151.7778L285.0168 151.7778L282.7517 151.7778L280.4866 151.7778L278.2215 151.7764L275.9186 151.7764L273.6913 151.7764L271.3884 151.7764L269.1233 151.7764L266.8582 151.7764L264.5554 151.7764L262.2903 151.7764L260.0252 151.7753L257.7601 151.7753L255.495 151.7753L253.2676 151.7753L250.9648 151.7753L248.6997 151.7753L246.4346 151.7753L244.1317 151.7753L241.8666 151.7753L239.6015 151.7759L237.3364 151.7759L235.0713 151.7759L232.8062 151.7759L230.5411 151.7753L228.2383 151.7753L225.9732 151.7753L223.7081 151.7758L221.4429 151.7758L219.1779 151.777L216.9128 151.7761L214.6476 151.7769L212.4203 151.7777L210.1174 151.7777L207.8524 151.7777L205.5872 151.7777L203.3221 151.7777L201.0571 151.7777L198.7919 151.778L196.5268 151.7797L194.2617 151.7797L191.9966 151.7797L189.7315 151.7797L187.4664 151.7797L185.2013 151.7805L182.9362 151.7805L180.6711 151.7805L178.406 151.782L176.1409 151.782L173.8758 151.782L171.573 151.782L169.3456 151.782L167.0805 151.7835L164.7777 151.783L162.5126 151.783L160.2475 151.7825L157.9824 151.7825L155.7173 151.7835L153.4522 151.7828L151.1871 151.7828L148.922 151.7822L146.6569 151.7822L144.3918 151.9736L142.1267 151.9742L139.8238 151.9748L137.5587 151.9738L135.2936 151.9738L133.0663 151.9738L130.7634 151.9738L128.4983 151.975L126.2332 151.9756L123.9681 151.9763L121.703 151.9775L119.4379 151.9781L117.1728 151.9781L114.9077 151.9776L112.6426 151.9781L110.3775 151.9781L108.1124 151.9776L105.8473 151.9769L103.5822 151.9774L101.3171 151.9774L99.052 151.9779L96.7869 151.9785L94.5218 151.9796L92.2567 151.9796L89.9916 151.9785L87.7265 151.979L85.4614 151.979L83.1963 151.979L80.9312 151.979L78.6661 151.9809L76.401 151.9815L74.0982 151.9815L71.8331 151.9815L69.568 151.992L67.3028 151.992L65 151.992Z" fill="#1E88E5"></path>
</g>
<g clip-path="url(#zr13-c5)">
<path d="M65 63.5773L67.3028 63.5023L69.568 63.1223L71.8331 62.8438L74.0982 62.1861L76.401 64.6708L78.6661 63.5343L80.9312 62.3522L83.1963 61.1365L85.4614 60.2666L87.7265 60.0577L89.9916 59.9597L92.2567 59.6073L94.5218 62.3711L96.7869 59.7722L99.052 62.6083L101.3171 61.7141L103.5822 61.5755L105.8473 61.5144L108.1124 61.4006L110.3775 61.2838L112.6426 61.108L114.9077 60.8276L117.1728 63.2653L119.4379 61.9238L121.703 60.6644L123.9681 59.8578L126.2332 59.6265L128.4983 59.5885L130.7634 59.3331L133.0663 59.2835L135.2936 59.2069L137.5587 59.0762L139.8238 58.9861L142.1267 58.8744L144.3918 58.8233L146.6569 58.478L148.922 58.4792L151.1871 60.4368L153.4522 68.3365L155.7173 64.9628L157.9824 61.8187L160.2475 58.8822L162.5126 57.3014L164.7777 57.0654L167.0805 60.2667L169.3456 59.6302L171.573 58.6475L173.8758 57.6867L176.1409 56.9636L178.406 56.2054L180.6711 55.5675L182.9362 54.4284L185.2013 53.6533L187.4664 56.1458L189.7315 54.0259L191.9966 52.6489L194.2617 51.9707L196.5268 51.1449L198.7919 54.3072L201.0571 52.3367L203.3221 51.0727L205.5872 49.9311L207.8524 53.3716L210.1174 52.4307L212.4203 51.747L214.6476 51.4642L216.9128 50.83L219.1779 50.7105L221.4429 50.6382L223.7081 50.5402L225.9732 50.091L228.2383 49.948L230.5411 49.8628L232.8062 49.8125L235.0713 49.7113L237.3364 49.6506L239.6015 49.2295L241.8666 49.1215L244.1317 49.0886L246.4346 48.8944L248.6997 48.8555L250.9648 48.4635L253.2676 48.4538L255.495 48.4232L257.7601 48.419L260.0252 48.3864L262.2903 48.3833L264.5554 48.3528L266.8582 48.7098L269.1233 48.7337L271.3884 48.7295L273.6913 48.7248L275.9186 48.3176L278.2215 48.2714L280.4866 48.2583L282.7517 48.2508L285.0168 48.1372L287.2819 48.1303L289.547 48.1289L291.8498 48.1326L294.1149 48.1248L296.38 48.1174L298.6451 48.0859L300.9102 48.0767L303.2131 48.0715L305.4782 51.0525L307.7433 49.5663L310.0084 49.3014L312.2735 49.1972L314.5386 49.1491L316.8414 49.079L319.1065 48.8731L321.3339 48.79L323.6367 48.6645L325.9019 48.6181L328.1669 48.5618L330.432 48.5226L332.7349 48.4849L335 48.4739L335 96.7682L332.7349 96.7682L330.432 96.7682L328.1669 96.7666L325.9019 96.769L323.6367 96.7696L321.3339 96.7707L319.1065 96.7694L316.8414 96.7707L314.5386 96.7733L312.2735 96.7733L310.0084 96.7752L307.7433 96.7773L305.4782 96.7773L303.2131 96.7757L300.9102 96.7757L298.6451 96.7762L296.38 96.7762L294.1149 96.7751L291.8498 96.7778L289.547 96.7711L287.2819 96.7711L285.0168 96.7711L282.7517 96.7711L280.4866 96.7727L278.2215 96.7717L275.9186 96.7706L273.6913 96.7691L271.3884 96.7697L269.1233 96.7697L266.8582 96.7702L264.5554 96.7702L262.2903 96.7702L260.0252 96.7691L257.7601 96.7691L255.495 96.7691L253.2676 96.7691L250.9648 96.7691L248.6997 96.7691L246.4346 96.7691L244.1317 96.7691L241.8666 96.7691L239.6015 96.7697L237.3364 96.7704L235.0713 96.7704L232.8062 96.7706L230.5411 96.77L228.2383 96.7705L225.9732 96.7705L223.7081 96.771L221.4429 96.7705L219.1779 96.7713L216.9128 96.77L214.6476 96.773L212.4203 96.7738L210.1174 96.7738L207.8524 96.7742L205.5872 96.7753L203.3221 96.7773L201.0571 96.7769L198.7919 96.7781L196.5268 96.7799L194.2617 96.8277L191.9966 96.8365L189.7315 96.9826L187.4664 96.9826L185.2013 97.1918L182.9362 97.1918L180.6711 97.4035L178.406 97.405L176.1409 97.6153L173.8758 97.6153L171.573 97.6225L169.3456 97.6203L167.0805 97.6218L164.7777 97.6208L162.5126 97.6213L160.2475 97.6208L157.9824 97.6208L155.7173 97.6217L153.4522 97.622L151.1871 97.622L148.922 97.622L146.6569 97.622L144.3918 97.8134L142.1267 97.814L139.8238 97.8127L137.5587 97.8117L135.2936 97.8117L133.0663 97.8124L130.7634 97.814L128.4983 97.8146L126.2332 97.8158L123.9681 97.817L121.703 97.8189L119.4379 97.8195L117.1728 97.8794L114.9077 97.8789L112.6426 97.8799L110.3775 97.8799L108.1124 97.8787L105.8473 97.8803L103.5822 97.8818L101.3171 97.8818L99.052 97.8823L96.7869 97.8829L94.5218 97.8845L92.2567 97.8858L89.9916 97.8841L87.7265 97.8866L85.4614 97.8866L83.1963 97.8866L80.9312 97.8866L78.6661 97.8895L76.401 97.8907L74.0982 97.8914L71.8331 97.8899L69.568 97.9004L67.3028 97.9004L65 97.9004Z" fill="#039BE5"></path>
</g>
<g clip-path="url(#zr13-c6)">
<path d="M65 63.3986L67.3028 63.2285L69.568 62.6526L71.8331 62.3646L74.0982 61.539L76.401 64.6699L78.6661 63.3511L80.9312 62.1635L83.1963 60.7806L85.4614 59.8596L87.7265 59.6243L89.9916 59.462L92.2567 59.0861L94.5218 62.3603L96.7869 59.7362L99.052 62.5876L101.3171 61.5663L103.5822 61.4157L105.8473 61.3403L108.1124 61.2052L110.3775 61.0696L112.6426 60.8514L114.9077 60.5464L117.1728 63.2412L119.4379 61.8778L121.703 60.572L123.9681 59.7335L126.2332 59.4225L128.4983 59.3722L130.7634 59.0999L133.0663 59.015L135.2936 58.932L137.5587 58.7875L139.8238 58.6798L142.1267 58.5512L144.3918 58.4708L146.6569 58.0591L148.922 58.0261L151.1871 60.4118L153.4522 68.3365L155.7173 64.946L157.9824 61.7879L160.2475 58.8259L162.5126 57.2342L164.7777 56.9764L167.0805 60.2598L169.3456 59.5889L171.573 58.5831L173.8758 57.6025L176.1409 56.8552L178.406 56.0654L180.6711 55.4036L182.9362 54.1923L185.2013 53.4027L187.4664 56.126L189.7315 53.9754L191.9966 52.5937L194.2617 51.8925L196.5268 51.0399L198.7919 54.3066L201.0571 52.312L203.3221 51.0354L205.5872 49.8675L207.8524 53.3543L210.1174 52.4L212.4203 51.6995L214.6476 51.3807L216.9128 50.7062L219.1779 50.5658L221.4429 50.4692L223.7081 50.3441L225.9732 49.8738L228.2383 49.7042L230.5411 49.5952L232.8062 49.5307L235.0713 49.4041L237.3364 49.3346L239.6015 48.8959L241.8666 48.7722L244.1317 48.7134L246.4346 48.4635L248.6997 48.3967L250.9648 47.9445L253.2676 47.8888L255.495 47.7995L257.7601 47.7515L260.0252 47.6966L262.2903 47.6647L264.5554 47.6031L266.8582 47.5624L269.1233 47.4847L271.3884 47.4638L273.6913 47.4347L275.9186 46.95L278.2215 46.8899L280.4866 46.8332L282.7517 47.2939L285.0168 47.13L287.2819 47.0855L289.547 47.0746L291.8498 47.0583L294.1149 47.0368L296.38 47.0139L298.6451 46.9432L300.9102 46.9224L303.2131 46.9567L305.4782 51.0496L307.7433 49.4636L310.0084 49.1618L312.2735 49.0341L314.5386 48.9751L316.8414 48.8846L319.1065 48.6606L321.3339 48.5484L323.6367 48.3833L325.9019 48.2433L328.1669 47.9817L330.432 47.6574L332.7349 47.3667L335 47.2018L335 48.4739L332.7349 48.4849L330.432 48.5226L328.1669 48.5618L325.9019 48.6181L323.6367 48.6645L321.3339 48.79L319.1065 48.8731L316.8414 49.079L314.5386 49.1491L312.2735 49.1972L310.0084 49.3014L307.7433 49.5663L305.4782 51.0525L303.2131 48.0715L300.9102 48.0767L298.6451 48.0859L296.38 48.1174L294.1149 48.1248L291.8498 48.1326L289.547 48.1289L287.2819 48.1303L285.0168 48.1372L282.7517 48.2508L280.4866 48.2583L278.2215 48.2714L275.9186 48.3176L273.6913 48.7248L271.3884 48.7295L269.1233 48.7337L266.8582 48.7098L264.5554 48.3528L262.2903 48.3833L260.0252 48.3864L257.7601 48.419L255.495 48.4232L253.2676 48.4538L250.9648 48.4635L248.6997 48.8555L246.4346 48.8944L244.1317 49.0886L241.8666 49.1215L239.6015 49.2295L237.3364 49.6506L235.0713 49.7113L232.8062 49.8125L230.5411 49.8628L228.2383 49.948L225.9732 50.091L223.7081 50.5402L221.4429 50.6382L219.1779 50.7105L216.9128 50.83L214.6476 51.4642L212.4203 51.747L210.1174 52.4307L207.8524 53.3716L205.5872 49.9311L203.3221 51.0727L201.0571 52.3367L198.7919 54.3072L196.5268 51.1449L194.2617 51.9707L191.9966 52.6489L189.7315 54.0259L187.4664 56.1458L185.2013 53.6533L182.9362 54.4284L180.6711 55.5675L178.406 56.2054L176.1409 56.9636L173.8758 57.6867L171.573 58.6475L169.3456 59.6302L167.0805 60.2667L164.7777 57.0654L162.5126 57.3014L160.2475 58.8822L157.9824 61.8187L155.7173 64.9628L153.4522 68.3365L151.1871 60.4368L148.922 58.4792L146.6569 58.478L144.3918 58.8233L142.1267 58.8744L139.8238 58.9861L137.5587 59.0762L135.2936 59.2069L133.0663 59.2835L130.7634 59.3331L128.4983 59.5885L126.2332 59.6265L123.9681 59.8578L121.703 60.6644L119.4379 61.9238L117.1728 63.2653L114.9077 60.8276L112.6426 61.108L110.3775 61.2838L108.1124 61.4006L105.8473 61.5144L103.5822 61.5755L101.3171 61.7141L99.052 62.6083L96.7869 59.7722L94.5218 62.3711L92.2567 59.6073L89.9916 59.9597L87.7265 60.0577L85.4614 60.2666L83.1963 61.1365L80.9312 62.3522L78.6661 63.5343L76.401 64.6708L74.0982 62.1861L71.8331 62.8438L69.568 63.1223L67.3028 63.5023L65 63.5773Z" fill="#00ACC1"></path>
</g>
<g clip-path="url(#zr13-c7)">
<path d="M65 63.0448L67.3028 62.8387L69.568 62.2628L71.8331 61.9672L74.0982 61.1379L76.401 64.6699L78.6661 63.3434L80.9312 62.1467L83.1963 60.7522L85.4614 59.8241L87.7265 59.5692L89.9916 59.3992L92.2567 59.0132L94.5218 62.3594L96.7869 59.7278L99.052 62.5791L101.3171 61.5458L103.5822 61.3882L105.8473 61.1574L108.1124 60.9961L110.3775 60.806L112.6426 60.5829L114.9077 60.2635L117.1728 63.2297L119.4379 61.8433L121.703 60.5217L123.9681 59.6761L126.2332 59.3651L128.4983 59.3091L130.7634 59.0309L133.0663 58.9355L135.2936 58.8407L137.5587 58.6916L139.8238 58.562L142.1267 58.4093L144.3918 58.3263L146.6569 57.899L148.922 57.8614L151.1871 60.406L153.4522 68.3365L155.7173 64.933L157.9824 61.7669L160.2475 58.7971L162.5126 57.1944L164.7777 56.9307L167.0805 60.2547L169.3456 59.5781L171.573 58.5679L173.8758 57.5719L176.1409 56.8097L178.406 56.0107L180.6711 55.3455L182.9362 54.1271L185.2013 53.3283L187.4664 56.1231L189.7315 53.9598L191.9966 52.5644L194.2617 51.8534L196.5268 50.9952L198.7919 54.3048L201.0571 52.2989L203.3221 51.0125L205.5872 49.8428L207.8524 53.3505L210.1174 52.3832L212.4203 51.6751L214.6476 51.3486L216.9128 50.6643L219.1779 50.516L221.4429 50.408L223.7081 50.2644L225.9732 49.7879L228.2383 49.6051L230.5411 49.4894L232.8062 49.4043L235.0713 49.2606L237.3364 49.1732L239.6015 48.683L241.8666 48.5394L244.1317 48.4731L246.4346 48.2204L248.6997 48.1462L250.9648 47.6919L253.2676 47.6264L255.495 47.5115L257.7601 47.4569L260.0252 47.382L262.2903 47.3391L264.5554 47.2569L266.8582 47.2L269.1233 47.1048L271.3884 47.0715L273.6913 47.0226L275.9186 46.4728L278.2215 46.3678L280.4866 46.3034L282.7517 46.2596L285.0168 46.0344L287.2819 46.0663L289.547 46.2034L291.8498 46.376L294.1149 46.2978L296.38 46.2927L298.6451 46.1656L300.9102 46.2358L303.2131 46.9178L305.4782 51.0496L307.7433 49.4513L310.0084 49.1384L312.2735 48.9771L314.5386 48.9102L316.8414 48.6061L319.1065 48.3737L321.3339 48.2584L323.6367 48.089L325.9019 47.9354L328.1669 47.6659L330.432 47.3392L332.7349 47.0442L335 46.8703L335 47.2018L332.7349 47.3667L330.432 47.6574L328.1669 47.9817L325.9019 48.2433L323.6367 48.3833L321.3339 48.5484L319.1065 48.6606L316.8414 48.8846L314.5386 48.9751L312.2735 49.0341L310.0084 49.1618L307.7433 49.4636L305.4782 51.0496L303.2131 46.9567L300.9102 46.9224L298.6451 46.9432L296.38 47.0139L294.1149 47.0368L291.8498 47.0583L289.547 47.0746L287.2819 47.0855L285.0168 47.13L282.7517 47.2939L280.4866 46.8332L278.2215 46.8899L275.9186 46.95L273.6913 47.4347L271.3884 47.4638L269.1233 47.4847L266.8582 47.5624L264.5554 47.6031L262.2903 47.6647L260.0252 47.6966L257.7601 47.7515L255.495 47.7995L253.2676 47.8888L250.9648 47.9445L248.6997 48.3967L246.4346 48.4635L244.1317 48.7134L241.8666 48.7722L239.6015 48.8959L237.3364 49.3346L235.0713 49.4041L232.8062 49.5307L230.5411 49.5952L228.2383 49.7042L225.9732 49.8738L223.7081 50.3441L221.4429 50.4692L219.1779 50.5658L216.9128 50.7062L214.6476 51.3807L212.4203 51.6995L210.1174 52.4L207.8524 53.3543L205.5872 49.8675L203.3221 51.0354L201.0571 52.312L198.7919 54.3066L196.5268 51.0399L194.2617 51.8925L191.9966 52.5937L189.7315 53.9754L187.4664 56.126L185.2013 53.4027L182.9362 54.1923L180.6711 55.4036L178.406 56.0654L176.1409 56.8552L173.8758 57.6025L171.573 58.5831L169.3456 59.5889L167.0805 60.2598L164.7777 56.9764L162.5126 57.2342L160.2475 58.8259L157.9824 61.7879L155.7173 64.946L153.4522 68.3365L151.1871 60.4118L148.922 58.0261L146.6569 58.0591L144.3918 58.4708L142.1267 58.5512L139.8238 58.6798L137.5587 58.7875L135.2936 58.932L133.0663 59.015L130.7634 59.0999L128.4983 59.3722L126.2332 59.4225L123.9681 59.7335L121.703 60.572L119.4379 61.8778L117.1728 63.2412L114.9077 60.5464L112.6426 60.8514L110.3775 61.0696L108.1124 61.2052L105.8473 61.3403L103.5822 61.4157L101.3171 61.5663L99.052 62.5876L96.7869 59.7362L94.5218 62.3603L92.2567 59.0861L89.9916 59.462L87.7265 59.6243L85.4614 59.8596L83.1963 60.7806L80.9312 62.1635L78.6661 63.3511L76.401 64.6699L74.0982 61.539L71.8331 62.3646L69.568 62.6526L67.3028 63.2285L65 63.3986Z" fill="#00897B"></path>
</g>
<g clip-path="url(#zr13-c8)">
<path d="M65 63.0241L67.3028 62.8113L69.568 62.2298L71.8331 61.9315L74.0982 61.093L76.401 64.6672L78.6661 63.3299L80.9312 62.1256L83.1963 60.7254L85.4614 59.7901L87.7265 59.5273L89.9916 59.3476L92.2567 58.9504L94.5218 62.3565L96.7869 59.7154L99.052 62.5774L101.3171 61.5372L103.5822 61.3612L105.8473 61.1217L108.1124 60.9419L110.3775 60.719L112.6426 60.4798L114.9077 60.1546L117.1728 63.1451L119.4379 61.7464L121.703 60.41L123.9681 59.5602L126.2332 59.2326L128.4983 59.1392L130.7634 58.8579L133.0663 58.7485L135.2936 58.6486L137.5587 58.4919L139.8238 58.3353L142.1267 58.1551L144.3918 58.0561L146.6569 57.6164L148.922 57.5719L151.1871 60.3875L153.4522 68.3365L155.7173 64.9144L157.9824 61.7327L160.2475 58.7462L162.5126 57.1283L164.7777 56.8398L167.0805 60.247L169.3456 59.5575L171.573 58.5229L173.8758 57.5149L176.1409 56.7354L178.406 55.9167L180.6711 55.2461L182.9362 54.0131L185.2013 53.2036L187.4664 56.1045L189.7315 53.9273L191.9966 52.5163L194.2617 51.7876L196.5268 50.9163L198.7919 54.3027L201.0571 52.2792L203.3221 50.9617L205.5872 49.7873L207.8524 53.3215L210.1174 52.3357L212.4203 51.6193L214.6476 51.2811L216.9128 50.5881L219.1779 50.4343L221.4429 50.3007L223.7081 50.1495L225.9732 49.663L228.2383 49.4738L230.5411 49.3493L232.8062 49.2595L235.0713 49.1019L237.3364 49.0065L239.6015 48.5072L241.8666 48.3127L244.1317 48.2421L246.4346 47.9723L248.6997 47.8974L250.9648 47.4386L253.2676 47.3637L255.495 47.2439L257.7601 47.181L260.0252 47.0939L262.2903 47.0354L264.5554 46.9484L266.8582 46.8794L269.1233 46.7752L271.3884 46.732L273.6913 46.6742L275.9186 46.1115L278.2215 45.9895L280.4866 45.9054L282.7517 45.8497L285.0168 45.6143L287.2819 45.5264L289.547 45.4433L291.8498 45.4053L294.1149 45.3168L296.38 45.2793L298.6451 45.1429L300.9102 45.104L303.2131 46.9115L305.4782 51.0456L307.7433 49.4262L310.0084 48.9474L312.2735 48.7734L314.5386 48.7002L316.8414 48.3728L319.1065 48.1258L321.3339 47.9952L323.6367 47.7976L325.9019 47.6306L328.1669 47.3532L330.432 47.0148L332.7349 46.7096L335 46.5218L335 46.8703L332.7349 47.0442L330.432 47.3392L328.1669 47.6659L325.9019 47.9354L323.6367 48.089L321.3339 48.2584L319.1065 48.3737L316.8414 48.6061L314.5386 48.9102L312.2735 48.9771L310.0084 49.1384L307.7433 49.4513L305.4782 51.0496L303.2131 46.9178L300.9102 46.2358L298.6451 46.1656L296.38 46.2927L294.1149 46.2978L291.8498 46.376L289.547 46.2034L287.2819 46.0663L285.0168 46.0344L282.7517 46.2596L280.4866 46.3034L278.2215 46.3678L275.9186 46.4728L273.6913 47.0226L271.3884 47.0715L269.1233 47.1048L266.8582 47.2L264.5554 47.2569L262.2903 47.3391L260.0252 47.382L257.7601 47.4569L255.495 47.5115L253.2676 47.6264L250.9648 47.6919L248.6997 48.1462L246.4346 48.2204L244.1317 48.4731L241.8666 48.5394L239.6015 48.683L237.3364 49.1732L235.0713 49.2606L232.8062 49.4043L230.5411 49.4894L228.2383 49.6051L225.9732 49.7879L223.7081 50.2644L221.4429 50.408L219.1779 50.516L216.9128 50.6643L214.6476 51.3486L212.4203 51.6751L210.1174 52.3832L207.8524 53.3505L205.5872 49.8428L203.3221 51.0125L201.0571 52.2989L198.7919 54.3048L196.5268 50.9952L194.2617 51.8534L191.9966 52.5644L189.7315 53.9598L187.4664 56.1231L185.2013 53.3283L182.9362 54.1271L180.6711 55.3455L178.406 56.0107L176.1409 56.8097L173.8758 57.5719L171.573 58.5679L169.3456 59.5781L167.0805 60.2547L164.7777 56.9307L162.5126 57.1944L160.2475 58.7971L157.9824 61.7669L155.7173 64.933L153.4522 68.3365L151.1871 60.406L148.922 57.8614L146.6569 57.899L144.3918 58.3263L142.1267 58.4093L139.8238 58.562L137.5587 58.6916L135.2936 58.8407L133.0663 58.9355L130.7634 59.0309L128.4983 59.3091L126.2332 59.3651L123.9681 59.6761L121.703 60.5217L119.4379 61.8433L117.1728 63.2297L114.9077 60.2635L112.6426 60.5829L110.3775 60.806L108.1124 60.9961L105.8473 61.1574L103.5822 61.3882L101.3171 61.5458L99.052 62.5791L96.7869 59.7278L94.5218 62.3594L92.2567 59.0132L89.9916 59.3992L87.7265 59.5692L85.4614 59.8241L83.1963 60.7522L80.9312 62.1467L78.6661 63.3434L76.401 64.6699L74.0982 61.1379L71.8331 61.9672L69.568 62.2628L67.3028 62.8387L65 63.0448Z" fill="#43A047"></path>
</g>
<g clip-path="url(#zr13-c9)">
<path d="M65 62.9433L67.3028 62.6913L69.568 62.06L71.8331 61.7022L74.0982 60.8308L76.401 64.6621L78.6661 63.2865L80.9312 62.0167L83.1963 60.5696L85.4614 59.5895L87.7265 59.279L89.9916 59.0636L92.2567 58.6235L94.5218 62.3282L96.7869 59.6144L99.052 62.5587L101.3171 61.4683L103.5822 61.2531L105.8473 60.9833L108.1124 60.7756L110.3775 60.5254L112.6426 60.2487L114.9077 59.8933L117.1728 63.1226L119.4379 61.6814L121.703 60.2848L123.9681 59.3698L126.2332 59.0079L128.4983 58.8796L130.7634 58.5285L133.0663 58.3742L135.2936 58.249L137.5587 58.0663L139.8238 57.8817L142.1267 57.6678L144.3918 57.5364L146.6569 57.0258L148.922 56.8973L151.1871 60.3523L153.4522 68.3365L155.7173 64.8667L157.9824 61.6561L160.2475 58.6299L162.5126 56.9671L164.7777 56.6506L167.0805 60.2399L169.3456 59.5064L171.573 58.4403L173.8758 57.3915L176.1409 56.5738L178.406 55.7235L180.6711 55.024L182.9362 53.7657L185.2013 52.927L187.4664 56.1039L189.7315 53.8746L191.9966 52.4415L194.2617 51.6662L196.5268 50.7411L198.7919 54.3021L201.0571 52.2351L203.3221 50.876L205.5872 49.6648L207.8524 53.2547L210.1174 52.2377L212.4203 51.4884L214.6476 51.1243L216.9128 50.39L219.1779 50.2158L221.4429 50.0408L223.7081 49.8643L225.9732 49.3517L228.2383 49.1392L230.5411 48.9847L232.8062 48.8656L235.0713 48.6817L237.3364 48.5633L239.6015 48.0255L241.8666 47.8065L244.1317 47.7017L246.4346 47.3963L248.6997 47.2792L250.9648 46.7717L253.2676 46.676L255.495 46.5176L257.7601 46.4261L260.0252 46.3239L262.2903 46.2363L264.5554 46.1323L266.8582 46.0365L269.1233 45.91L271.3884 45.8359L273.6913 45.7485L275.9186 45.1354L278.2215 44.9689L280.4866 44.6075L282.7517 44.4845L285.0168 44.1565L287.2819 44.0299L289.547 43.9286L291.8498 43.8706L294.1149 43.7496L296.38 43.69L298.6451 43.5128L300.9102 43.4332L303.2131 46.8855L305.4782 51.0413L307.7433 49.3686L310.0084 48.859L312.2735 48.5863L314.5386 48.4857L316.8414 48.1339L319.1065 47.8424L321.3339 47.6945L323.6367 47.4342L325.9019 47.2026L328.1669 46.8946L330.432 46.5194L332.7349 46.1852L335 45.9623L335 46.5218L332.7349 46.7096L330.432 47.0148L328.1669 47.3532L325.9019 47.6306L323.6367 47.7976L321.3339 47.9952L319.1065 48.1258L316.8414 48.3728L314.5386 48.7002L312.2735 48.7734L310.0084 48.9474L307.7433 49.4262L305.4782 51.0456L303.2131 46.9115L300.9102 45.104L298.6451 45.1429L296.38 45.2793L294.1149 45.3168L291.8498 45.4053L289.547 45.4433L287.2819 45.5264L285.0168 45.6143L282.7517 45.8497L280.4866 45.9054L278.2215 45.9895L275.9186 46.1115L273.6913 46.6742L271.3884 46.732L269.1233 46.7752L266.8582 46.8794L264.5554 46.9484L262.2903 47.0354L260.0252 47.0939L257.7601 47.181L255.495 47.2439L253.2676 47.3637L250.9648 47.4386L248.6997 47.8974L246.4346 47.9723L244.1317 48.2421L241.8666 48.3127L239.6015 48.5072L237.3364 49.0065L235.0713 49.1019L232.8062 49.2595L230.5411 49.3493L228.2383 49.4738L225.9732 49.663L223.7081 50.1495L221.4429 50.3007L219.1779 50.4343L216.9128 50.5881L214.6476 51.2811L212.4203 51.6193L210.1174 52.3357L207.8524 53.3215L205.5872 49.7873L203.3221 50.9617L201.0571 52.2792L198.7919 54.3027L196.5268 50.9163L194.2617 51.7876L191.9966 52.5163L189.7315 53.9273L187.4664 56.1045L185.2013 53.2036L182.9362 54.0131L180.6711 55.2461L178.406 55.9167L176.1409 56.7354L173.8758 57.5149L171.573 58.5229L169.3456 59.5575L167.0805 60.247L164.7777 56.8398L162.5126 57.1283L160.2475 58.7462L157.9824 61.7327L155.7173 64.9144L153.4522 68.3365L151.1871 60.3875L148.922 57.5719L146.6569 57.6164L144.3918 58.0561L142.1267 58.1551L139.8238 58.3353L137.5587 58.4919L135.2936 58.6486L133.0663 58.7485L130.7634 58.8579L128.4983 59.1392L126.2332 59.2326L123.9681 59.5602L121.703 60.41L119.4379 61.7464L117.1728 63.1451L114.9077 60.1546L112.6426 60.4798L110.3775 60.719L108.1124 60.9419L105.8473 61.1217L103.5822 61.3612L101.3171 61.5372L99.052 62.5774L96.7869 59.7154L94.5218 62.3565L92.2567 58.9504L89.9916 59.3476L87.7265 59.5273L85.4614 59.7901L83.1963 60.7254L80.9312 62.1256L78.6661 63.3299L76.401 64.6672L74.0982 61.093L71.8331 61.9315L69.568 62.2298L67.3028 62.8113L65 63.0241Z" fill="#7CB342"></path>
</g>
<g clip-path="url(#zr13-c10)">
<path d="M65 62.9157L67.3028 62.654L69.568 62.0116L71.8331 61.637L74.0982 60.7468L76.401 64.6584L78.6661 63.2759L80.9312 61.9947L83.1963 60.5402L85.4614 59.5538L87.7265 59.2305L89.9916 59.0115L92.2567 58.5663L94.5218 62.3257L96.7869 59.601L99.052 62.5516L101.3171 61.4489L103.5822 61.2273L105.8473 60.9488L108.1124 60.7316L110.3775 60.4712L112.6426 60.1854L114.9077 59.8261L117.1728 63.1148L119.4379 61.6632L121.703 60.2643L123.9681 59.3453L126.2332 58.9702L128.4983 58.8374L130.7634 58.4811L133.0663 58.319L135.2936 58.1828L137.5587 57.9947L139.8238 57.7289L142.1267 57.5044L144.3918 57.3608L146.6569 56.8397L148.922 56.7028L151.1871 60.3429L153.4522 68.3365L155.7173 64.8411L157.9824 61.6233L160.2475 58.5905L162.5126 56.9135L164.7777 56.5933L167.0805 60.2393L169.3456 59.4945L171.573 58.4048L173.8758 57.3521L176.1409 56.5295L178.406 55.6755L180.6711 54.9727L182.9362 53.7088L185.2013 52.8642L187.4664 56.0987L189.7315 53.862L191.9966 52.4194L194.2617 51.6367L196.5268 50.707L198.7919 54.3021L201.0571 52.2307L203.3221 50.8611L205.5872 49.6409L207.8524 53.237L210.1174 52.2014L212.4203 51.4441L214.6476 51.0536L216.9128 50.3147L219.1779 50.1301L221.4429 49.9484L223.7081 49.7674L225.9732 49.2516L228.2383 49.0318L230.5411 48.8712L232.8062 48.7454L235.0713 48.5548L237.3364 48.429L239.6015 47.8808L241.8666 47.6551L244.1317 47.547L246.4346 47.2359L248.6997 47.1155L250.9648 46.6036L253.2676 46.5053L255.495 46.3429L257.7601 46.247L260.0252 46.135L262.2903 46.0428L264.5554 45.9309L266.8582 45.8212L269.1233 45.6832L271.3884 45.6056L273.6913 45.5165L275.9186 44.8973L278.2215 44.6761L280.4866 44.2957L282.7517 44.1616L285.0168 43.8153L287.2819 43.6789L289.547 43.5587L291.8498 43.454L294.1149 43.3236L296.38 43.2364L298.6451 43.0481L300.9102 42.9596L303.2131 46.88L305.4782 51.0408L307.7433 49.3427L310.0084 48.8273L312.2735 48.5489L314.5386 48.439L316.8414 48.0828L319.1065 47.7872L321.3339 47.6298L323.6367 47.3388L325.9019 47.0981L328.1669 46.7826L330.432 46.404L332.7349 46.0602L335 45.8348L335 45.9623L332.7349 46.1852L330.432 46.5194L328.1669 46.8946L325.9019 47.2026L323.6367 47.4342L321.3339 47.6945L319.1065 47.8424L316.8414 48.1339L314.5386 48.4857L312.2735 48.5863L310.0084 48.859L307.7433 49.3686L305.4782 51.0413L303.2131 46.8855L300.9102 43.4332L298.6451 43.5128L296.38 43.69L294.1149 43.7496L291.8498 43.8706L289.547 43.9286L287.2819 44.0299L285.0168 44.1565L282.7517 44.4845L280.4866 44.6075L278.2215 44.9689L275.9186 45.1354L273.6913 45.7485L271.3884 45.8359L269.1233 45.91L266.8582 46.0365L264.5554 46.1323L262.2903 46.2363L260.0252 46.3239L257.7601 46.4261L255.495 46.5176L253.2676 46.676L250.9648 46.7717L248.6997 47.2792L246.4346 47.3963L244.1317 47.7017L241.8666 47.8065L239.6015 48.0255L237.3364 48.5633L235.0713 48.6817L232.8062 48.8656L230.5411 48.9847L228.2383 49.1392L225.9732 49.3517L223.7081 49.8643L221.4429 50.0408L219.1779 50.2158L216.9128 50.39L214.6476 51.1243L212.4203 51.4884L210.1174 52.2377L207.8524 53.2547L205.5872 49.6648L203.3221 50.876L201.0571 52.2351L198.7919 54.3021L196.5268 50.7411L194.2617 51.6662L191.9966 52.4415L189.7315 53.8746L187.4664 56.1039L185.2013 52.927L182.9362 53.7657L180.6711 55.024L178.406 55.7235L176.1409 56.5738L173.8758 57.3915L171.573 58.4403L169.3456 59.5064L167.0805 60.2399L164.7777 56.6506L162.5126 56.9671L160.2475 58.6299L157.9824 61.6561L155.7173 64.8667L153.4522 68.3365L151.1871 60.3523L148.922 56.8973L146.6569 57.0258L144.3918 57.5364L142.1267 57.6678L139.8238 57.8817L137.5587 58.0663L135.2936 58.249L133.0663 58.3742L130.7634 58.5285L128.4983 58.8796L126.2332 59.0079L123.9681 59.3698L121.703 60.2848L119.4379 61.6814L117.1728 63.1226L114.9077 59.8933L112.6426 60.2487L110.3775 60.5254L108.1124 60.7756L105.8473 60.9833L103.5822 61.2531L101.3171 61.4683L99.052 62.5587L96.7869 59.6144L94.5218 62.3282L92.2567 58.6235L89.9916 59.0636L87.7265 59.279L85.4614 59.5895L83.1963 60.5696L80.9312 62.0167L78.6661 63.2865L76.401 64.6621L74.0982 60.8308L71.8331 61.7022L69.568 62.06L67.3028 62.6913L65 62.9433Z" fill="#C0CA33"></path>
</g>
<g clip-path="url(#zr13-c0)">
<path d="M65 464.935L67.3028 464.935L69.568 464.935L71.8331 464.935L74.0982 464.935L76.401 464.935L78.6661 464.935L80.9312 464.935L83.1963 464.935L85.4614 464.935L87.7265 464.935L89.9916 464.9345L92.2567 464.935L94.5218 464.935L96.7869 464.935L99.052 464.935L101.3171 464.935L103.5822 464.935L105.8473 464.9345L108.1124 464.9345L110.3775 464.935L112.6426 464.935L114.9077 464.9345L117.1728 464.9345L119.4379 464.9345L121.703 464.9362L123.9681 464.9362L126.2332 464.9362L128.4983 464.9362L130.7634 464.9362L133.0663 464.9362L135.2936 464.9362L137.5587 464.9362L139.8238 464.9362L142.1267 464.9362L144.3918 464.9362L146.6569 464.9362L148.922 464.9362L151.1871 464.9362L153.4522 464.9362L155.7173 464.9362L157.9824 464.9362L160.2475 464.9362L162.5126 464.9362L164.7777 464.9362L167.0805 464.9367L169.3456 464.9352L171.573 464.9352L173.8758 464.9352L176.1409 464.9352L178.406 464.9352L180.6711 464.9352L182.9362 464.9352L185.2013 464.9352L187.4664 464.9352L189.7315 464.9352L191.9966 464.9352L194.2617 464.9352L196.5268 464.9352L198.7919 464.9352L201.0571 464.9344L203.3221 464.9344L205.5872 464.9344L207.8524 464.9344L210.1174 464.9344L212.4203 464.9344L214.6476 464.9336L216.9128 464.9336L219.1779 464.9336L221.4429 464.9348L223.7081 464.9348L225.9732 464.9348L228.2383 464.9348L230.5411 464.9348L232.8062 464.9348L235.0713 464.9348L237.3364 464.9348L239.6015 464.9348L241.8666 464.9342L244.1317 464.9342L246.4346 464.9342L248.6997 464.9342L250.9648 464.9342L253.2676 464.9342L255.495 464.9342L257.7601 464.9342L260.0252 464.9342L262.2903 464.9342L264.5554 464.9342L266.8582 464.9342L269.1233 464.9342L271.3884 464.9342L273.6913 464.9342L275.9186 464.9342L278.2215 464.9342L280.4866 464.9347L282.7517 464.9347L285.0168 464.9347L287.2819 464.9347L289.547 464.9347L291.8498 464.9347L294.1149 464.9347L296.38 464.9347L298.6451 464.9347L300.9102 464.9347L303.2131 464.9347L305.4782 464.9347L307.7433 464.9347L310.0084 464.9347L312.2735 464.9347L314.5386 464.9347L316.8414 464.9355L319.1065 464.9355L321.3339 464.9349L323.6367 464.9344L325.9019 464.9344L328.1669 464.9344L330.432 464.9344L332.7349 464.9344L335 464.9344" fill="none" stroke="#D81B60" stroke-width="0" stroke-opacity="0" stroke-linejoin="bevel"></path>
</g>
<g clip-path="url(#zr13-c1)">
<path d="M65 353.3515L67.3028 353.3515L69.568 353.3515L71.8331 353.3515L74.0982 353.3515L76.401 353.3515L78.6661 353.3515L80.9312 353.3496L83.1963 353.3496L85.4614 353.3496L87.7265 353.3496L89.9916 353.3491L92.2567 353.3502L94.5218 353.3502L96.7869 353.3507L99.052 353.3507L101.3171 353.3507L103.5822 353.3507L105.8473 353.3502L108.1124 353.3502L110.3775 353.3507L112.6426 353.3507L114.9077 353.3502L117.1728 353.3502L119.4379 353.3502L121.703 353.3519L123.9681 353.3519L126.2332 353.3519L128.4983 353.3519L130.7634 353.3513L133.0663 353.3513L135.2936 353.3513L137.5587 353.3513L139.8238 353.3506L142.1267 353.3506L144.3918 353.35L146.6569 353.35L148.922 353.35L151.1871 353.35L153.4522 353.35L155.7173 353.35L157.9824 353.349L160.2475 353.349L162.5126 353.349L164.7777 353.349L167.0805 353.3495L169.3456 353.348L171.573 353.348L173.8758 353.348L176.1409 353.348L178.406 353.348L180.6711 353.348L182.9362 353.348L185.2013 353.348L187.4664 353.348L189.7315 353.348L191.9966 353.348L194.2617 353.348L196.5268 353.348L198.7919 353.348L201.0571 353.3471L203.3221 353.3471L205.5872 353.3471L207.8524 353.3471L210.1174 353.3471L212.4203 353.3471L214.6476 353.3463L216.9128 353.3463L219.1779 353.3463L221.4429 353.3457L223.7081 353.3457L225.9732 353.3463L228.2383 353.3463L230.5411 353.3463L232.8062 353.3463L235.0713 353.3463L237.3364 353.3463L239.6015 353.3463L241.8666 353.3457L244.1317 353.3457L246.4346 353.3457L248.6997 353.3457L250.9648 353.3457L253.2676 353.3457L255.495 353.3457L257.7601 353.3457L260.0252 353.3457L262.2903 353.3457L264.5554 353.3457L266.8582 353.3457L269.1233 353.3457L271.3884 353.3457L273.6913 353.3457L275.9186 353.3457L278.2215 353.3457L280.4866 353.3466L282.7517 353.3466L285.0168 353.3466L287.2819 353.3466L289.547 353.3466L291.8498 353.3466L294.1149 353.3466L296.38 353.3466L298.6451 353.3466L300.9102 353.3466L303.2131 353.3466L305.4782 353.3466L307.7433 353.3466L310.0084 353.3466L312.2735 353.3466L314.5386 353.3466L316.8414 353.3468L319.1065 353.3468L321.3339 353.3462L323.6367 353.3456L325.9019 353.3456L328.1669 353.3456L330.432 353.3456L332.7349 353.3456L335 353.3456" fill="none" stroke="#8E24AA" stroke-width="0" stroke-opacity="0" stroke-linejoin="bevel"></path>
</g>
<g clip-path="url(#zr13-c2)">
<path d="M65 222.0815L67.3028 222.0815L69.568 222.0815L71.8331 222.0815L74.0982 222.0815L76.401 222.0815L78.6661 222.081L80.9312 222.079L83.1963 222.079L85.4614 222.079L87.7265 222.079L89.9916 222.0786L92.2567 222.0797L94.5218 222.0797L96.7869 222.0801L99.052 222.0796L101.3171 222.0791L103.5822 222.0791L105.8473 222.0786L108.1124 222.0786L110.3775 222.0791L112.6426 222.0791L114.9077 222.0786L117.1728 222.0791L119.4379 222.0791L121.703 222.0785L123.9681 222.0785L126.2332 222.0785L128.4983 222.0785L130.7634 222.0779L133.0663 222.0779L135.2936 222.0779L137.5587 222.0779L139.8238 222.0795L142.1267 222.0795L144.3918 222.0789L146.6569 221.8875L148.922 221.8875L151.1871 221.8875L153.4522 221.8875L155.7173 221.8875L157.9824 221.8866L160.2475 221.8866L162.5126 221.8866L164.7777 221.8866L167.0805 221.887L169.3456 221.8855L171.573 221.8855L173.8758 221.8855L176.1409 221.8861L178.406 221.8861L180.6711 221.8861L182.9362 221.8861L185.2013 221.8861L187.4664 221.8861L189.7315 221.8861L191.9966 221.8861L194.2617 221.8861L196.5268 221.8861L198.7919 221.8861L201.0571 221.8852L203.3221 221.8852L205.5872 221.8852L207.8524 221.8852L210.1174 221.8852L212.4203 221.8852L214.6476 221.8844L216.9128 221.8844L219.1779 221.885L221.4429 221.8844L223.7081 221.8844L225.9732 221.8849L228.2383 221.8849L230.5411 221.8849L232.8062 221.8849L235.0713 221.8849L237.3364 221.8849L239.6015 221.8849L241.8666 221.8843L244.1317 221.8843L246.4346 221.8843L248.6997 221.8843L250.9648 221.8854L253.2676 221.8854L255.495 221.8859L257.7601 221.8859L260.0252 221.8859L262.2903 221.8865L264.5554 221.8865L266.8582 221.8865L269.1233 221.8865L271.3884 221.8865L273.6913 221.8865L275.9186 221.8865L278.2215 221.8865L280.4866 221.8879L282.7517 221.8879L285.0168 221.8879L287.2819 221.8879L289.547 221.8879L291.8498 221.8879L294.1149 221.8879L296.38 221.8879L298.6451 221.8879L300.9102 221.8879L303.2131 221.8879L305.4782 221.8879L307.7433 221.8879L310.0084 221.8879L312.2735 221.8879L314.5386 221.8879L316.8414 221.888L319.1065 221.888L321.3339 221.8874L323.6367 221.8868L325.9019 221.8868L328.1669 221.8868L330.432 221.8868L332.7349 221.8868L335 221.8868" fill="none" stroke="#5E35B1" stroke-width="0" stroke-opacity="0" stroke-linejoin="bevel"></path>
</g>
<g clip-path="url(#zr13-c3)">
<path d="M65 151.992L67.3028 151.992L69.568 151.992L71.8331 151.9815L74.0982 151.9815L76.401 151.9815L78.6661 151.9809L80.9312 151.979L83.1963 151.979L85.4614 151.979L87.7265 151.979L89.9916 151.9785L92.2567 151.9796L94.5218 151.9796L96.7869 151.9785L99.052 151.9779L101.3171 151.9774L103.5822 151.9774L105.8473 151.9769L108.1124 151.9776L110.3775 151.9781L112.6426 151.9781L114.9077 151.9776L117.1728 151.9781L119.4379 151.9781L121.703 151.9775L123.9681 151.9763L126.2332 151.9756L128.4983 151.975L130.7634 151.9738L133.0663 151.9738L135.2936 151.9738L137.5587 151.9738L139.8238 151.9748L142.1267 151.9742L144.3918 151.9736L146.6569 151.7822L148.922 151.7822L151.1871 151.7828L153.4522 151.7828L155.7173 151.7835L157.9824 151.7825L160.2475 151.7825L162.5126 151.783L164.7777 151.783L167.0805 151.7835L169.3456 151.782L171.573 151.782L173.8758 151.782L176.1409 151.782L178.406 151.782L180.6711 151.7805L182.9362 151.7805L185.2013 151.7805L187.4664 151.7797L189.7315 151.7797L191.9966 151.7797L194.2617 151.7797L196.5268 151.7797L198.7919 151.778L201.0571 151.7777L203.3221 151.7777L205.5872 151.7777L207.8524 151.7777L210.1174 151.7777L212.4203 151.7777L214.6476 151.7769L216.9128 151.7761L219.1779 151.777L221.4429 151.7758L223.7081 151.7758L225.9732 151.7753L228.2383 151.7753L230.5411 151.7753L232.8062 151.7759L235.0713 151.7759L237.3364 151.7759L239.6015 151.7759L241.8666 151.7753L244.1317 151.7753L246.4346 151.7753L248.6997 151.7753L250.9648 151.7753L253.2676 151.7753L255.495 151.7753L257.7601 151.7753L260.0252 151.7753L262.2903 151.7764L264.5554 151.7764L266.8582 151.7764L269.1233 151.7764L271.3884 151.7764L273.6913 151.7764L275.9186 151.7764L278.2215 151.7764L280.4866 151.7778L282.7517 151.7778L285.0168 151.7778L287.2819 151.7778L289.547 151.7778L291.8498 151.7838L294.1149 151.7838L296.38 151.7838L298.6451 151.7838L300.9102 151.7838L303.2131 151.7838L305.4782 151.7838L307.7433 151.7843L310.0084 151.7822L312.2735 151.7809L314.5386 151.7809L316.8414 151.7805L319.1065 151.7792L321.3339 151.7799L323.6367 151.7793L325.9019 151.7787L328.1669 151.7793L330.432 151.7793L332.7349 151.7764L335 151.7764" fill="none" stroke="#3949AB" stroke-width="0" stroke-opacity="0" stroke-linejoin="bevel"></path>
</g>
<g clip-path="url(#zr13-c4)">
<path d="M65 97.9004L67.3028 97.9004L69.568 97.9004L71.8331 97.8899L74.0982 97.8914L76.401 97.8907L78.6661 97.8895L80.9312 97.8866L83.1963 97.8866L85.4614 97.8866L87.7265 97.8866L89.9916 97.8841L92.2567 97.8858L94.5218 97.8845L96.7869 97.8829L99.052 97.8823L101.3171 97.8818L103.5822 97.8818L105.8473 97.8803L108.1124 97.8787L110.3775 97.8799L112.6426 97.8799L114.9077 97.8789L117.1728 97.8794L119.4379 97.8195L121.703 97.8189L123.9681 97.817L126.2332 97.8158L128.4983 97.8146L130.7634 97.814L133.0663 97.8124L135.2936 97.8117L137.5587 97.8117L139.8238 97.8127L142.1267 97.814L144.3918 97.8134L146.6569 97.622L148.922 97.622L151.1871 97.622L153.4522 97.622L155.7173 97.6217L157.9824 97.6208L160.2475 97.6208L162.5126 97.6213L164.7777 97.6208L167.0805 97.6218L169.3456 97.6203L171.573 97.6225L173.8758 97.6153L176.1409 97.6153L178.406 97.405L180.6711 97.4035L182.9362 97.1918L185.2013 97.1918L187.4664 96.9826L189.7315 96.9826L191.9966 96.8365L194.2617 96.8277L196.5268 96.7799L198.7919 96.7781L201.0571 96.7769L203.3221 96.7773L205.5872 96.7753L207.8524 96.7742L210.1174 96.7738L212.4203 96.7738L214.6476 96.773L216.9128 96.77L219.1779 96.7713L221.4429 96.7705L223.7081 96.771L225.9732 96.7705L228.2383 96.7705L230.5411 96.77L232.8062 96.7706L235.0713 96.7704L237.3364 96.7704L239.6015 96.7697L241.8666 96.7691L244.1317 96.7691L246.4346 96.7691L248.6997 96.7691L250.9648 96.7691L253.2676 96.7691L255.495 96.7691L257.7601 96.7691L260.0252 96.7691L262.2903 96.7702L264.5554 96.7702L266.8582 96.7702L269.1233 96.7697L271.3884 96.7697L273.6913 96.7691L275.9186 96.7706L278.2215 96.7717L280.4866 96.7727L282.7517 96.7711L285.0168 96.7711L287.2819 96.7711L289.547 96.7711L291.8498 96.7778L294.1149 96.7751L296.38 96.7762L298.6451 96.7762L300.9102 96.7757L303.2131 96.7757L305.4782 96.7773L307.7433 96.7773L310.0084 96.7752L312.2735 96.7733L314.5386 96.7733L316.8414 96.7707L319.1065 96.7694L321.3339 96.7707L323.6367 96.7696L325.9019 96.769L328.1669 96.7666L330.432 96.7682L332.7349 96.7682L335 96.7682" fill="none" stroke="#1E88E5" stroke-width="0" stroke-opacity="0" stroke-linejoin="bevel"></path>
</g>
<g clip-path="url(#zr13-c5)">
<path d="M65 63.5773L67.3028 63.5023L69.568 63.1223L71.8331 62.8438L74.0982 62.1861L76.401 64.6708L78.6661 63.5343L80.9312 62.3522L83.1963 61.1365L85.4614 60.2666L87.7265 60.0577L89.9916 59.9597L92.2567 59.6073L94.5218 62.3711L96.7869 59.7722L99.052 62.6083L101.3171 61.7141L103.5822 61.5755L105.8473 61.5144L108.1124 61.4006L110.3775 61.2838L112.6426 61.108L114.9077 60.8276L117.1728 63.2653L119.4379 61.9238L121.703 60.6644L123.9681 59.8578L126.2332 59.6265L128.4983 59.5885L130.7634 59.3331L133.0663 59.2835L135.2936 59.2069L137.5587 59.0762L139.8238 58.9861L142.1267 58.8744L144.3918 58.8233L146.6569 58.478L148.922 58.4792L151.1871 60.4368L153.4522 68.3365L155.7173 64.9628L157.9824 61.8187L160.2475 58.8822L162.5126 57.3014L164.7777 57.0654L167.0805 60.2667L169.3456 59.6302L171.573 58.6475L173.8758 57.6867L176.1409 56.9636L178.406 56.2054L180.6711 55.5675L182.9362 54.4284L185.2013 53.6533L187.4664 56.1458L189.7315 54.0259L191.9966 52.6489L194.2617 51.9707L196.5268 51.1449L198.7919 54.3072L201.0571 52.3367L203.3221 51.0727L205.5872 49.9311L207.8524 53.3716L210.1174 52.4307L212.4203 51.747L214.6476 51.4642L216.9128 50.83L219.1779 50.7105L221.4429 50.6382L223.7081 50.5402L225.9732 50.091L228.2383 49.948L230.5411 49.8628L232.8062 49.8125L235.0713 49.7113L237.3364 49.6506L239.6015 49.2295L241.8666 49.1215L244.1317 49.0886L246.4346 48.8944L248.6997 48.8555L250.9648 48.4635L253.2676 48.4538L255.495 48.4232L257.7601 48.419L260.0252 48.3864L262.2903 48.3833L264.5554 48.3528L266.8582 48.7098L269.1233 48.7337L271.3884 48.7295L273.6913 48.7248L275.9186 48.3176L278.2215 48.2714L280.4866 48.2583L282.7517 48.2508L285.0168 48.1372L287.2819 48.1303L289.547 48.1289L291.8498 48.1326L294.1149 48.1248L296.38 48.1174L298.6451 48.0859L300.9102 48.0767L303.2131 48.0715L305.4782 51.0525L307.7433 49.5663L310.0084 49.3014L312.2735 49.1972L314.5386 49.1491L316.8414 49.079L319.1065 48.8731L321.3339 48.79L323.6367 48.6645L325.9019 48.6181L328.1669 48.5618L330.432 48.5226L332.7349 48.4849L335 48.4739" fill="none" stroke="#039BE5" stroke-width="0" stroke-opacity="0" stroke-linejoin="bevel"></path>
</g>
<g clip-path="url(#zr13-c6)">
<path d="M65 63.3986L67.3028 63.2285L69.568 62.6526L71.8331 62.3646L74.0982 61.539L76.401 64.6699L78.6661 63.3511L80.9312 62.1635L83.1963 60.7806L85.4614 59.8596L87.7265 59.6243L89.9916 59.462L92.2567 59.0861L94.5218 62.3603L96.7869 59.7362L99.052 62.5876L101.3171 61.5663L103.5822 61.4157L105.8473 61.3403L108.1124 61.2052L110.3775 61.0696L112.6426 60.8514L114.9077 60.5464L117.1728 63.2412L119.4379 61.8778L121.703 60.572L123.9681 59.7335L126.2332 59.4225L128.4983 59.3722L130.7634 59.0999L133.0663 59.015L135.2936 58.932L137.5587 58.7875L139.8238 58.6798L142.1267 58.5512L144.3918 58.4708L146.6569 58.0591L148.922 58.0261L151.1871 60.4118L153.4522 68.3365L155.7173 64.946L157.9824 61.7879L160.2475 58.8259L162.5126 57.2342L164.7777 56.9764L167.0805 60.2598L169.3456 59.5889L171.573 58.5831L173.8758 57.6025L176.1409 56.8552L178.406 56.0654L180.6711 55.4036L182.9362 54.1923L185.2013 53.4027L187.4664 56.126L189.7315 53.9754L191.9966 52.5937L194.2617 51.8925L196.5268 51.0399L198.7919 54.3066L201.0571 52.312L203.3221 51.0354L205.5872 49.8675L207.8524 53.3543L210.1174 52.4L212.4203 51.6995L214.6476 51.3807L216.9128 50.7062L219.1779 50.5658L221.4429 50.4692L223.7081 50.3441L225.9732 49.8738L228.2383 49.7042L230.5411 49.5952L232.8062 49.5307L235.0713 49.4041L237.3364 49.3346L239.6015 48.8959L241.8666 48.7722L244.1317 48.7134L246.4346 48.4635L248.6997 48.3967L250.9648 47.9445L253.2676 47.8888L255.495 47.7995L257.7601 47.7515L260.0252 47.6966L262.2903 47.6647L264.5554 47.6031L266.8582 47.5624L269.1233 47.4847L271.3884 47.4638L273.6913 47.4347L275.9186 46.95L278.2215 46.8899L280.4866 46.8332L282.7517 47.2939L285.0168 47.13L287.2819 47.0855L289.547 47.0746L291.8498 47.0583L294.1149 47.0368L296.38 47.0139L298.6451 46.9432L300.9102 46.9224L303.2131 46.9567L305.4782 51.0496L307.7433 49.4636L310.0084 49.1618L312.2735 49.0341L314.5386 48.9751L316.8414 48.8846L319.1065 48.6606L321.3339 48.5484L323.6367 48.3833L325.9019 48.2433L328.1669 47.9817L330.432 47.6574L332.7349 47.3667L335 47.2018" fill="none" stroke="#00ACC1" stroke-width="0" stroke-opacity="0" stroke-linejoin="bevel"></path>
</g>
<g clip-path="url(#zr13-c7)">
<path d="M65 63.0448L67.3028 62.8387L69.568 62.2628L71.8331 61.9672L74.0982 61.1379L76.401 64.6699L78.6661 63.3434L80.9312 62.1467L83.1963 60.7522L85.4614 59.8241L87.7265 59.5692L89.9916 59.3992L92.2567 59.0132L94.5218 62.3594L96.7869 59.7278L99.052 62.5791L101.3171 61.5458L103.5822 61.3882L105.8473 61.1574L108.1124 60.9961L110.3775 60.806L112.6426 60.5829L114.9077 60.2635L117.1728 63.2297L119.4379 61.8433L121.703 60.5217L123.9681 59.6761L126.2332 59.3651L128.4983 59.3091L130.7634 59.0309L133.0663 58.9355L135.2936 58.8407L137.5587 58.6916L139.8238 58.562L142.1267 58.4093L144.3918 58.3263L146.6569 57.899L148.922 57.8614L151.1871 60.406L153.4522 68.3365L155.7173 64.933L157.9824 61.7669L160.2475 58.7971L162.5126 57.1944L164.7777 56.9307L167.0805 60.2547L169.3456 59.5781L171.573 58.5679L173.8758 57.5719L176.1409 56.8097L178.406 56.0107L180.6711 55.3455L182.9362 54.1271L185.2013 53.3283L187.4664 56.1231L189.7315 53.9598L191.9966 52.5644L194.2617 51.8534L196.5268 50.9952L198.7919 54.3048L201.0571 52.2989L203.3221 51.0125L205.5872 49.8428L207.8524 53.3505L210.1174 52.3832L212.4203 51.6751L214.6476 51.3486L216.9128 50.6643L219.1779 50.516L221.4429 50.408L223.7081 50.2644L225.9732 49.7879L228.2383 49.6051L230.5411 49.4894L232.8062 49.4043L235.0713 49.2606L237.3364 49.1732L239.6015 48.683L241.8666 48.5394L244.1317 48.4731L246.4346 48.2204L248.6997 48.1462L250.9648 47.6919L253.2676 47.6264L255.495 47.5115L257.7601 47.4569L260.0252 47.382L262.2903 47.3391L264.5554 47.2569L266.8582 47.2L269.1233 47.1048L271.3884 47.0715L273.6913 47.0226L275.9186 46.4728L278.2215 46.3678L280.4866 46.3034L282.7517 46.2596L285.0168 46.0344L287.2819 46.0663L289.547 46.2034L291.8498 46.376L294.1149 46.2978L296.38 46.2927L298.6451 46.1656L300.9102 46.2358L303.2131 46.9178L305.4782 51.0496L307.7433 49.4513L310.0084 49.1384L312.2735 48.9771L314.5386 48.9102L316.8414 48.6061L319.1065 48.3737L321.3339 48.2584L323.6367 48.089L325.9019 47.9354L328.1669 47.6659L330.432 47.3392L332.7349 47.0442L335 46.8703" fill="none" stroke="#00897B" stroke-width="0" stroke-opacity="0" stroke-linejoin="bevel"></path>
</g>
<g clip-path="url(#zr13-c8)">
<path d="M65 63.0241L67.3028 62.8113L69.568 62.2298L71.8331 61.9315L74.0982 61.093L76.401 64.6672L78.6661 63.3299L80.9312 62.1256L83.1963 60.7254L85.4614 59.7901L87.7265 59.5273L89.9916 59.3476L92.2567 58.9504L94.5218 62.3565L96.7869 59.7154L99.052 62.5774L101.3171 61.5372L103.5822 61.3612L105.8473 61.1217L108.1124 60.9419L110.3775 60.719L112.6426 60.4798L114.9077 60.1546L117.1728 63.1451L119.4379 61.7464L121.703 60.41L123.9681 59.5602L126.2332 59.2326L128.4983 59.1392L130.7634 58.8579L133.0663 58.7485L135.2936 58.6486L137.5587 58.4919L139.8238 58.3353L142.1267 58.1551L144.3918 58.0561L146.6569 57.6164L148.922 57.5719L151.1871 60.3875L153.4522 68.3365L155.7173 64.9144L157.9824 61.7327L160.2475 58.7462L162.5126 57.1283L164.7777 56.8398L167.0805 60.247L169.3456 59.5575L171.573 58.5229L173.8758 57.5149L176.1409 56.7354L178.406 55.9167L180.6711 55.2461L182.9362 54.0131L185.2013 53.2036L187.4664 56.1045L189.7315 53.9273L191.9966 52.5163L194.2617 51.7876L196.5268 50.9163L198.7919 54.3027L201.0571 52.2792L203.3221 50.9617L205.5872 49.7873L207.8524 53.3215L210.1174 52.3357L212.4203 51.6193L214.6476 51.2811L216.9128 50.5881L219.1779 50.4343L221.4429 50.3007L223.7081 50.1495L225.9732 49.663L228.2383 49.4738L230.5411 49.3493L232.8062 49.2595L235.0713 49.1019L237.3364 49.0065L239.6015 48.5072L241.8666 48.3127L244.1317 48.2421L246.4346 47.9723L248.6997 47.8974L250.9648 47.4386L253.2676 47.3637L255.495 47.2439L257.7601 47.181L260.0252 47.0939L262.2903 47.0354L264.5554 46.9484L266.8582 46.8794L269.1233 46.7752L271.3884 46.732L273.6913 46.6742L275.9186 46.1115L278.2215 45.9895L280.4866 45.9054L282.7517 45.8497L285.0168 45.6143L287.2819 45.5264L289.547 45.4433L291.8498 45.4053L294.1149 45.3168L296.38 45.2793L298.6451 45.1429L300.9102 45.104L303.2131 46.9115L305.4782 51.0456L307.7433 49.4262L310.0084 48.9474L312.2735 48.7734L314.5386 48.7002L316.8414 48.3728L319.1065 48.1258L321.3339 47.9952L323.6367 47.7976L325.9019 47.6306L328.1669 47.3532L330.432 47.0148L332.7349 46.7096L335 46.5218" fill="none" stroke="#43A047" stroke-width="0" stroke-opacity="0" stroke-linejoin="bevel"></path>
</g>
<g clip-path="url(#zr13-c9)">
<path d="M65 62.9433L67.3028 62.6913L69.568 62.06L71.8331 61.7022L74.0982 60.8308L76.401 64.6621L78.6661 63.2865L80.9312 62.0167L83.1963 60.5696L85.4614 59.5895L87.7265 59.279L89.9916 59.0636L92.2567 58.6235L94.5218 62.3282L96.7869 59.6144L99.052 62.5587L101.3171 61.4683L103.5822 61.2531L105.8473 60.9833L108.1124 60.7756L110.3775 60.5254L112.6426 60.2487L114.9077 59.8933L117.1728 63.1226L119.4379 61.6814L121.703 60.2848L123.9681 59.3698L126.2332 59.0079L128.4983 58.8796L130.7634 58.5285L133.0663 58.3742L135.2936 58.249L137.5587 58.0663L139.8238 57.8817L142.1267 57.6678L144.3918 57.5364L146.6569 57.0258L148.922 56.8973L151.1871 60.3523L153.4522 68.3365L155.7173 64.8667L157.9824 61.6561L160.2475 58.6299L162.5126 56.9671L164.7777 56.6506L167.0805 60.2399L169.3456 59.5064L171.573 58.4403L173.8758 57.3915L176.1409 56.5738L178.406 55.7235L180.6711 55.024L182.9362 53.7657L185.2013 52.927L187.4664 56.1039L189.7315 53.8746L191.9966 52.4415L194.2617 51.6662L196.5268 50.7411L198.7919 54.3021L201.0571 52.2351L203.3221 50.876L205.5872 49.6648L207.8524 53.2547L210.1174 52.2377L212.4203 51.4884L214.6476 51.1243L216.9128 50.39L219.1779 50.2158L221.4429 50.0408L223.7081 49.8643L225.9732 49.3517L228.2383 49.1392L230.5411 48.9847L232.8062 48.8656L235.0713 48.6817L237.3364 48.5633L239.6015 48.0255L241.8666 47.8065L244.1317 47.7017L246.4346 47.3963L248.6997 47.2792L250.9648 46.7717L253.2676 46.676L255.495 46.5176L257.7601 46.4261L260.0252 46.3239L262.2903 46.2363L264.5554 46.1323L266.8582 46.0365L269.1233 45.91L271.3884 45.8359L273.6913 45.7485L275.9186 45.1354L278.2215 44.9689L280.4866 44.6075L282.7517 44.4845L285.0168 44.1565L287.2819 44.0299L289.547 43.9286L291.8498 43.8706L294.1149 43.7496L296.38 43.69L298.6451 43.5128L300.9102 43.4332L303.2131 46.8855L305.4782 51.0413L307.7433 49.3686L310.0084 48.859L312.2735 48.5863L314.5386 48.4857L316.8414 48.1339L319.1065 47.8424L321.3339 47.6945L323.6367 47.4342L325.9019 47.2026L328.1669 46.8946L330.432 46.5194L332.7349 46.1852L335 45.9623" fill="none" stroke="#7CB342" stroke-width="0" stroke-opacity="0" stroke-linejoin="bevel"></path>
</g>
<g clip-path="url(#zr13-c10)">
<path d="M65 62.9157L67.3028 62.654L69.568 62.0116L71.8331 61.637L74.0982 60.7468L76.401 64.6584L78.6661 63.2759L80.9312 61.9947L83.1963 60.5402L85.4614 59.5538L87.7265 59.2305L89.9916 59.0115L92.2567 58.5663L94.5218 62.3257L96.7869 59.601L99.052 62.5516L101.3171 61.4489L103.5822 61.2273L105.8473 60.9488L108.1124 60.7316L110.3775 60.4712L112.6426 60.1854L114.9077 59.8261L117.1728 63.1148L119.4379 61.6632L121.703 60.2643L123.9681 59.3453L126.2332 58.9702L128.4983 58.8374L130.7634 58.4811L133.0663 58.319L135.2936 58.1828L137.5587 57.9947L139.8238 57.7289L142.1267 57.5044L144.3918 57.3608L146.6569 56.8397L148.922 56.7028L151.1871 60.3429L153.4522 68.3365L155.7173 64.8411L157.9824 61.6233L160.2475 58.5905L162.5126 56.9135L164.7777 56.5933L167.0805 60.2393L169.3456 59.4945L171.573 58.4048L173.8758 57.3521L176.1409 56.5295L178.406 55.6755L180.6711 54.9727L182.9362 53.7088L185.2013 52.8642L187.4664 56.0987L189.7315 53.862L191.9966 52.4194L194.2617 51.6367L196.5268 50.707L198.7919 54.3021L201.0571 52.2307L203.3221 50.8611L205.5872 49.6409L207.8524 53.237L210.1174 52.2014L212.4203 51.4441L214.6476 51.0536L216.9128 50.3147L219.1779 50.1301L221.4429 49.9484L223.7081 49.7674L225.9732 49.2516L228.2383 49.0318L230.5411 48.8712L232.8062 48.7454L235.0713 48.5548L237.3364 48.429L239.6015 47.8808L241.8666 47.6551L244.1317 47.547L246.4346 47.2359L248.6997 47.1155L250.9648 46.6036L253.2676 46.5053L255.495 46.3429L257.7601 46.247L260.0252 46.135L262.2903 46.0428L264.5554 45.9309L266.8582 45.8212L269.1233 45.6832L271.3884 45.6056L273.6913 45.5165L275.9186 44.8973L278.2215 44.6761L280.4866 44.2957L282.7517 44.1616L285.0168 43.8153L287.2819 43.6789L289.547 43.5587L291.8498 43.454L294.1149 43.3236L296.38 43.2364L298.6451 43.0481L300.9102 42.9596L303.2131 46.88L305.4782 51.0408L307.7433 49.3427L310.0084 48.8273L312.2735 48.5489L314.5386 48.439L316.8414 48.0828L319.1065 47.7872L321.3339 47.6298L323.6367 47.3388L325.9019 47.0981L328.1669 46.7826L330.432 46.404L332.7349 46.0602L335 45.8348" fill="none" stroke="#C0CA33" stroke-width="0" stroke-opacity="0" stroke-linejoin="bevel"></path>
</g>
<path d="M65 535.6667L335 535.6667" fill="none" stroke="#fff" stroke-width="0"></path>
<path d="M65 535.6667L335 535.6667" fill="none" stroke="#fff" stroke-width="0"></path>
<path d="M65 535.6667L335 535.6667" fill="none" stroke="#fff" stroke-width="0"></path>
<path d="M65 535.6667L335 535.6667" fill="none" stroke="#fff" stroke-width="0"></path>
<path d="M65 535.6667L335 535.6667" fill="none" stroke="#fff" stroke-width="0"></path>
<path d="M65 535.6667L335 535.6667" fill="none" stroke="#fff" stroke-width="0"></path>
<path d="M65 535.6667L335 535.6667" fill="none" stroke="#fff" stroke-width="0"></path>
<path d="M65 535.6667L335 535.6667" fill="none" stroke="#fff" stroke-width="0"></path>
<path d="M65 535.6667L335 535.6667" fill="none" stroke="#fff" stroke-width="0"></path>
<path d="M65 535.6667L335 535.6667" fill="none" stroke="#fff" stroke-width="0"></path>
<path d="M65 535.6667L335 535.6667" fill="none" stroke="#fff" stroke-width="0"></path>
<defs >
<clipPath id="zr13-c0">
<path d="M64 19l272 0l0 522l-272 0Z" fill="#000"></path>
</clipPath>
<clipPath id="zr13-c1">
<path d="M64 19l272 0l0 522l-272 0Z" fill="#000"></path>
</clipPath>
<clipPath id="zr13-c2">
<path d="M64 19l272 0l0 522l-272 0Z" fill="#000"></path>
</clipPath>
<clipPath id="zr13-c3">
<path d="M64 19l272 0l0 522l-272 0Z" fill="#000"></path>
</clipPath>
<clipPath id="zr13-c4">
<path d="M64 19l272 0l0 522l-272 0Z" fill="#000"></path>
</clipPath>
<clipPath id="zr13-c5">
<path d="M64 19l272 0l0 522l-272 0Z" fill="#000"></path>
</clipPath>
<clipPath id="zr13-c6">
<path d="M64 19l272 0l0 522l-272 0Z" fill="#000"></path>
</clipPath>
<clipPath id="zr13-c7">
<path d="M64 19l272 0l0 522l-272 0Z" fill="#000"></path>
</clipPath>
<clipPath id="zr13-c8">
<path d="M64 19l272 0l0 522l-272 0Z" fill="#000"></path>
</clipPath>
<clipPath id="zr13-c9">
<path d="M64 19l272 0l0 522l-272 0Z" fill="#000"></path>
</clipPath>
<clipPath id="zr13-c10">
<path d="M64 19l272 0l0 522l-272 0Z" fill="#000"></path>
</clipPath>
</defs>
</svg>